<svg height="512pt" viewBox="0 -14 512 511" width="512pt" xmlns="http://www.w3.org/2000/svg"><path d="m243.738281 240.78125-53.5625 125.359375h24.609375c11.058594 0 18.472656 11.386719 13.996094 21.496094l-38.320312 86.464843c-.203126.449219-.417969.886719-.671876 1.316407-3.816406 6.792969-12.242187 9.691406-19.515624 6.464843-7.734376-3.425781-11.222657-12.464843-7.796876-20.1875l27.3125-61.609374 1.480469-3.335938h-24.28125c-10.949219 0-18.386719-11.222656-14.070312-21.324219l36.871093-86.289062 25.800782-60.386719c3.324218-7.773438 12.3125-11.375 20.085937-8.058594 7.777344 3.328125 11.386719 12.3125 8.0625 20.089844zm0 0" fill="#ffeb99"/><path d="m243.738281 240.78125-53.5625 125.359375h24.609375c11.058594 0 18.472656 11.386719 13.996094 21.496094l-38.320312 86.464843c-.203126.449219-.417969.886719-.671876 1.316407v-186.28125l25.800782-60.386719c3.324218-7.773438 12.3125-11.375 20.085937-8.058594 7.777344 3.328125 11.386719 12.3125 8.0625 20.089844zm0 0" fill="#ffd422"/><path d="m117.015625 91.65625c0 8.445312-6.855469 15.300781-15.300781 15.300781h-61.925782c-21.945312 0-39.789062-17.851562-39.789062-39.785156 0-21.9375 17.84375-39.789063 39.789062-39.789063h18.71875c8.449219 0 15.304688 6.855469 15.304688 15.300782 0 8.449218-6.855469 15.304687-15.304688 15.304687h-18.71875c-5.0625 0-9.183593 4.121094-9.183593 9.183594 0 5.058594 4.121093 9.179687 9.183593 9.179687h61.925782c8.445312 0 15.300781 6.855469 15.300781 15.304688zm0 0" fill="#beebfa"/><path d="m405.050781 119.128906c0 65.507813-53.109375 118.621094-118.617187 118.621094-65.519532 0-118.621094-53.113281-118.621094-118.621094 0-65.515625 53.101562-118.628906 118.621094-118.628906 65.507812 0 118.617187 53.113281 118.617187 118.628906zm0 0" fill="#ffeb99"/><path d="m405.050781 119.128906c0 65.507813-53.109375 118.621094-118.617187 118.621094v-237.25c65.507812 0 118.617187 53.113281 118.617187 118.628906zm0 0" fill="#ffd422"/><path d="m395.523438 235.25c0 38.429688-30.433594 69.742188-68.507813 71.179688-2.328125.105468 17.277344.070312-273.210937.070312-29.113282 0-52.683594-23.617188-52.683594-52.691406 0-29.097656 23.589844-52.683594 52.683594-52.683594h29.6875c0-59.007812 47.679687-105.757812 105.5625-105.757812.246093 0 .488281 0 .734374.011718 48.09375.316406 88.542969 32.808594 100.929688 77.027344 47.03125-25.195312 104.804688 8.816406 104.804688 62.84375zm0 0" fill="#dae2f2"/><path d="m395.523438 235.25c0 38.429688-30.433594 69.742188-68.507813 71.179688-2.320313.105468 6.925781.070312-137.226563.070312v-211.121094c48.09375.316406 88.542969 32.808594 100.929688 77.027344 47.03125-25.195312 104.804688 8.816406 104.804688 62.84375zm0 0" fill="#b9ceed"/><path d="m51.132812 373.929688c-7.695312-3.488282-16.765624-.082032-20.257812 7.617187l-27.230469 60.046875c-3.488281 7.699219-.078125 16.765625 7.617188 20.257812 7.707031 3.492188 16.769531.074219 20.257812-7.617187l27.230469-60.046875c3.492188-7.699219.082031-16.769531-7.617188-20.257812zm0 0" fill="#7ed8f6"/><path d="m75.992188 356.160156 5.03125-11.089844c3.488281-7.695312.078124-16.765624-7.621094-20.253906-7.695313-3.488281-16.765625-.078125-20.253906 7.617188l-5.027344 11.085937c-3.492188 7.699219-.082032 16.769531 7.617187 20.257813 7.710938 3.496094 16.769531.070312 20.253907-7.617188zm0 0" fill="#5ecef4"/><path d="m95.089844 413.6875c-7.695313-3.488281-16.765625-.078125-20.257813 7.617188l-9.199219 20.289062c-3.492187 7.695312-.082031 16.765625 7.617188 20.257812 7.699219 3.492188 16.765625.078126 20.253906-7.617187l9.203125-20.289063c3.488281-7.695312.078125-16.765624-7.617187-20.257812zm0 0" fill="#5ecef4"/><path d="m135.390625 324.816406c-7.695313-3.488281-16.765625-.082031-20.257813 7.617188l-21.332031 47.039062c-3.488281 7.699219-.078125 16.769532 7.617188 20.257813 7.707031 3.492187 16.769531.074219 20.257812-7.617188l21.332031-47.039062c3.488282-7.699219.078126-16.769531-7.617187-20.257813zm0 0" fill="#7ed8f6"/><path d="m280.382812 373.929688c-7.699218-3.488282-16.765624-.082032-20.257812 7.617187l-27.230469 60.046875c-3.488281 7.699219-.078125 16.765625 7.617188 20.257812 7.707031 3.492188 16.769531.074219 20.257812-7.617187l27.230469-60.046875c3.492188-7.699219.082031-16.769531-7.617188-20.257812zm0 0" fill="#7ed8f6"/><path d="m302.652344 324.816406c-7.695313-3.488281-16.765625-.078125-20.253906 7.617188l-5.027344 11.085937c-3.492188 7.699219-.082032 16.769531 7.617187 20.257813 7.707031 3.496094 16.769531.070312 20.253907-7.617188l5.027343-11.089844c3.492188-7.695312.082031-16.765624-7.617187-20.253906zm0 0" fill="#5ecef4"/><path d="m512 265.773438c0 8.449218-6.84375 15.304687-15.304688 15.304687h-158.4375c-20.320312 0-36.859374-16.539063-36.859374-36.863281 0-20.320313 16.539062-36.859375 36.859374-36.859375h13.710938c8.460938 0 15.304688 6.855469 15.304688 15.304687 0 8.457032-6.84375 15.300782-15.304688 15.300782h-13.710938c-3.445312 0-6.253906 2.808593-6.253906 6.253906 0 3.449218 2.808594 6.253906 6.253906 6.253906h158.4375c8.460938 0 15.304688 6.847656 15.304688 15.304688zm0 0" fill="#beebfa"/><path d="m503.472656 179.015625c0 8.445313-6.855468 15.304687-15.304687 15.304687h-37.042969c-20.324219 0-36.859375-16.539062-36.859375-36.863281 0-20.320312 16.535156-36.847656 36.859375-36.847656h13.710938c8.457031 0 15.304687 6.84375 15.304687 15.300781 0 8.449219-6.847656 15.304688-15.304687 15.304688h-13.710938c-3.449219 0-6.253906 2.796875-6.253906 6.242187 0 3.449219 2.804687 6.253907 6.253906 6.253907h37.042969c8.449219 0 15.304687 6.847656 15.304687 15.304687zm0 0" fill="#beebfa"/><path d="m503.472656 440.648438c0 8.445312-6.855468 15.300781-15.304687 15.300781h-149.917969c-20.324219 0-36.851562-16.535157-36.851562-36.859375 0-20.324219 16.527343-36.847656 36.851562-36.847656h13.71875c8.449219 0 15.304688 6.84375 15.304688 15.300781 0 8.449219-6.855469 15.304687-15.304688 15.304687h-13.71875c-3.4375 0-6.246094 2.804688-6.246094 6.242188 0 3.449218 2.808594 6.253906 6.246094 6.253906h149.917969c8.449219 0 15.304687 6.847656 15.304687 15.304688zm0 0" fill="#beebfa"/><path d="m494.433594 322.375c0 8.457031-6.855469 15.300781-15.304688 15.300781h-63.84375c-8.449218 0-15.304687-6.84375-15.304687-15.300781 0-8.449219 6.855469-15.304688 15.304687-15.304688h63.84375c8.449219 0 15.304688 6.855469 15.304688 15.304688zm0 0" fill="#beebfa"/><g fill="#7ed8f6"><path d="m503.472656 440.648438c0 8.445312-6.855468 15.300781-15.304687 15.300781h-85.738281v-30.605469h85.738281c8.449219 0 15.304687 6.847656 15.304687 15.304688zm0 0"/><path d="m494.433594 322.375c0 8.457031-6.855469 15.300781-15.304688 15.300781h-31.921875v-30.605469h31.921875c8.449219 0 15.304688 6.855469 15.304688 15.304688zm0 0"/><path d="m512 265.773438c0 8.449218-6.84375 15.304687-15.304688 15.304687h-89.992187v-30.609375h89.992187c8.460938 0 15.304688 6.847656 15.304688 15.304688zm0 0"/><path d="m464.835938 151.214844h-5.96875v-30.605469h5.96875c8.457031 0 15.304687 6.84375 15.304687 15.300781 0 8.449219-6.847656 15.304688-15.304687 15.304688zm0 0"/><path d="m503.472656 179.015625c0 8.445313-6.855468 15.304687-15.304687 15.304687h-29.300781v-30.609374h29.300781c8.449219 0 15.304687 6.847656 15.304687 15.304687zm0 0"/><path d="m58.507812 57.988281v-30.605469c8.449219 0 15.304688 6.855469 15.304688 15.300782 0 8.449218-6.855469 15.304687-15.304688 15.304687zm0 0"/><path d="m117.015625 91.65625c0 8.445312-6.855469 15.300781-15.300781 15.300781h-43.207032v-30.605469h43.207032c8.445312 0 15.300781 6.855469 15.300781 15.304688zm0 0"/></g></svg>