<svg height="512pt" viewBox="0 0 512 512" width="512pt" xmlns="http://www.w3.org/2000/svg"><path d="m256 83.933594c-94.878906 0-172.066406 77.1875-172.066406 172.066406s77.1875 172.066406 172.066406 172.066406 172.066406-77.1875 172.066406-172.066406-77.1875-172.066406-172.066406-172.066406zm0 0" fill="#ffeb99"/><path d="m428.066406 256c0 94.878906-77.1875 172.066406-172.066406 172.066406v-344.132812c94.878906 0 172.066406 77.1875 172.066406 172.066406zm0 0" fill="#ffde55"/><path d="m496.261719 240.261719h-30.425781c-8.691407 0-15.738282 7.046875-15.738282 15.738281s7.046875 15.738281 15.738282 15.738281h30.425781c8.691406 0 15.738281-7.046875 15.738281-15.738281s-7.046875-15.738281-15.738281-15.738281zm0 0" fill="#eebf00"/><path d="m46.164062 240.261719h-30.425781c-8.691406 0-15.738281 7.046875-15.738281 15.738281s7.046875 15.738281 15.738281 15.738281h30.425781c8.691407 0 15.738282-7.046875 15.738282-15.738281s-7.046875-15.738281-15.738282-15.738281zm0 0" fill="#ffcd00"/><path d="m414.761719 74.980469-21.511719 21.515625c-6.148438 6.144531-6.148438 16.109375 0 22.253906 6.144531 6.148438 16.109375 6.148438 22.253906 0l21.515625-21.511719c6.144531-6.148437 6.144531-16.113281 0-22.257812s-16.113281-6.144531-22.257812 0zm0 0" fill="#eebf00"/><g fill="#ffcd00"><path d="m96.496094 393.25-21.515625 21.511719c-6.144531 6.148437-6.144531 16.113281 0 22.257812s16.109375 6.144531 22.257812 0l21.511719-21.515625c6.148438-6.144531 6.148438-16.109375 0-22.253906-6.144531-6.148438-16.109375-6.148438-22.253906 0zm0 0"/><path d="m271.738281 15.738281v30.425781c0 8.6875-7.050781 15.738282-15.738281 15.738282s-15.738281-7.050782-15.738281-15.738282v-30.425781c0-8.6875 7.050781-15.738281 15.738281-15.738281s15.738281 7.050781 15.738281 15.738281zm0 0"/><path d="m271.738281 465.835938v30.425781c0 8.6875-7.050781 15.738281-15.738281 15.738281s-15.738281-7.050781-15.738281-15.738281v-30.425781c0-8.6875 7.050781-15.738282 15.738281-15.738282s15.738281 7.050782 15.738281 15.738282zm0 0"/></g><path d="m415.503906 393.25c-6.144531-6.148438-16.109375-6.148438-22.253906 0-6.148438 6.144531-6.148438 16.109375 0 22.253906l21.511719 21.515625c6.144531 6.144531 16.109375 6.148438 22.257812 0 6.144531-6.144531 6.144531-16.109375 0-22.257812zm0 0" fill="#eebf00"/><path d="m97.238281 74.980469c-6.148437-6.144531-16.113281-6.144531-22.257812 0s-6.144531 16.109375 0 22.257812l21.515625 21.511719c6.144531 6.148438 16.109375 6.148438 22.253906 0 6.148438-6.144531 6.148438-16.109375 0-22.253906zm0 0" fill="#ffcd00"/><path d="m178.886719 245.867188c-8.691407 0-15.738281-7.042969-15.738281-15.734376v-15.050781c0-8.691406 7.046874-15.738281 15.738281-15.738281 8.691406 0 15.734375 7.046875 15.734375 15.738281v15.050781c0 8.691407-7.042969 15.734376-15.734375 15.734376zm0 0" fill="#ffcd00"/><path d="m333.113281 245.867188c-8.691406 0-15.734375-7.042969-15.734375-15.734376v-15.050781c0-8.691406 7.042969-15.738281 15.734375-15.738281 8.691407 0 15.738281 7.046875 15.738281 15.738281v15.050781c0 8.691407-7.046874 15.734376-15.738281 15.734376zm0 0" fill="#eebf00"/><path d="m225.75 348.328125h-6.996094c-30.660156 0-55.605468-24.945313-55.605468-55.605469 0-8.691406 7.046874-15.738281 15.738281-15.738281 8.691406 0 15.734375 7.046875 15.734375 15.738281 0 13.304688 10.828125 24.128906 24.132812 24.128906h6.996094c8.691406 0 15.738281 7.046876 15.738281 15.738282s-7.046875 15.738281-15.738281 15.738281zm0 0" fill="#ffcd00"/><path d="m271.738281 15.738281v30.425781c0 8.6875-7.050781 15.738282-15.738281 15.738282v-61.902344c8.6875 0 15.738281 7.050781 15.738281 15.738281zm0 0" fill="#eebf00"/><path d="m271.738281 465.835938v30.425781c0 8.6875-7.050781 15.738281-15.738281 15.738281v-61.902344c8.6875 0 15.738281 7.050782 15.738281 15.738282zm0 0" fill="#eebf00"/></svg>