<svg height="512pt" viewBox="0 -19 512 512" width="512pt" xmlns="http://www.w3.org/2000/svg"><path d="m377.171875 133.78125c0 37.820312-30.734375 68.136719-68.117187 68.136719h-258.667969c-27.835938 0-50.386719-22.558594-50.386719-50.390625 0-27.824219 22.5625-50.386719 50.386719-50.386719h28.382812v-.171875c0-57.742188 48.289063-103.40625 105.234375-100.867188 44.40625 1.859376 81.40625 32.402344 92.9375 73.582032 45.078125-24.140625 100.230469 8.53125 100.230469 60.097656zm0 0" fill="#eef6ff"/><path d="m367.824219 473.292969c-8.5625 0-15.503907-6.941407-15.503907-15.503907v-31.066406c0-8.5625 6.941407-15.503906 15.503907-15.503906s15.503906 6.941406 15.503906 15.503906v31.066406c0 8.5625-6.941406 15.503907-15.503906 15.503907zm0 0" fill="#7ed8f6"/><path d="m140.714844 336.632812c-8.5625 0-15.503906 6.945313-15.503906 15.507813v105.648437c0 8.5625 6.941406 15.503907 15.503906 15.503907s15.503906-6.941407 15.503906-15.503907v-105.648437c0-8.5625-6.941406-15.507813-15.503906-15.507813zm0 0" fill="#5ecef4"/><path d="m140.714844 234.355469c-8.5625 0-15.503906 6.941406-15.503906 15.503906v38.695313c0 8.5625 6.941406 15.503906 15.503906 15.503906s15.503906-6.941406 15.503906-15.503906v-38.695313c0-8.5625-6.941406-15.503906-15.503906-15.503906zm0 0" fill="#5ecef4"/><g fill="#7ed8f6"><path d="m211.554688 371.015625c8.5625 0 15.503906-6.941406 15.503906-15.503906v-105.652344c0-8.5625-6.941406-15.503906-15.503906-15.503906s-15.503907 6.941406-15.503907 15.503906v105.652344c0 8.5625 6.941407 15.503906 15.503907 15.503906zm0 0"/><path d="m211.554688 473.292969c8.5625 0 15.503906-6.941407 15.503906-15.503907v-38.691406c0-8.5625-6.941406-15.503906-15.503906-15.503906s-15.503907 6.941406-15.503907 15.503906v38.691406c0 8.5625 6.941407 15.503907 15.503907 15.503907zm0 0"/><path d="m78.890625 371.015625c8.5625 0 15.503906-6.941406 15.503906-15.503906v-105.652344c0-8.5625-6.941406-15.503906-15.503906-15.503906s-15.503906 6.941406-15.503906 15.503906v105.652344c0 8.5625 6.941406 15.503906 15.503906 15.503906zm0 0"/><path d="m78.890625 473.292969c8.5625 0 15.503906-6.941407 15.503906-15.503907v-38.691406c0-8.5625-6.941406-15.503906-15.503906-15.503906s-15.503906 6.941406-15.503906 15.503906v38.691406c0 8.5625 6.941406 15.503907 15.503906 15.503907zm0 0"/></g><path d="m292.121094 367.488281c-8.5625 0-15.503906 6.945313-15.503906 15.507813v74.792968c0 8.5625 6.941406 15.503907 15.503906 15.503907s15.503906-6.941407 15.503906-15.503907v-74.792968c0-8.5625-6.941406-15.507813-15.503906-15.507813zm0 0" fill="#5ecef4"/><path d="m292.121094 284.433594c-8.5625 0-15.503906 6.941406-15.503906 15.503906v23.660156c0 8.5625 6.941406 15.503906 15.503906 15.503906s15.503906-6.941406 15.503906-15.503906v-23.660156c0-8.5625-6.941406-15.503906-15.503906-15.503906zm0 0" fill="#5ecef4"/><path d="m440.925781 367.488281c-8.5625 0-15.503906 6.945313-15.503906 15.507813v74.792968c0 8.5625 6.941406 15.503907 15.503906 15.503907s15.503907-6.941407 15.503907-15.503907v-74.792968c0-8.5625-6.941407-15.507813-15.503907-15.507813zm0 0" fill="#5ecef4"/><path d="m440.925781 284.433594c-8.5625 0-15.503906 6.941406-15.503906 15.503906v23.660156c0 8.5625 6.941406 15.503906 15.503906 15.503906s15.503907-6.941406 15.503907-15.503906v-23.660156c0-8.5625-6.941407-15.503906-15.503907-15.503906zm0 0" fill="#5ecef4"/><path d="m367.824219 284.433594c-8.5625 0-15.507813 6.941406-15.507813 15.503906v67.300781c0 8.5625 6.945313 15.503907 15.507813 15.503907s15.503906-6.941407 15.503906-15.503907v-67.300781c0-8.5625-6.941406-15.503906-15.503906-15.503906zm0 0" fill="#7ed8f6"/><path d="m377.171875 133.78125c0 37.820312-30.734375 68.136719-68.117187 68.136719h-125.050782v-201.816407c44.40625 1.859376 81.40625 32.40625 92.933594 73.585938 45.082031-24.144531 100.234375 8.527344 100.234375 60.09375zm0 0" fill="#dae2f2"/><path d="m512 210.195312c0 25.945313-21.082031 46.71875-46.707031 46.71875h-177.378907c-19.09375 0-34.554687-15.472656-34.554687-34.554687 0-19.078125 15.460937-34.550781 34.554687-34.550781h19.460938v-.125c0-38.363282 31.125-69.222656 69.222656-69.222656 31.75 0 58.511719 21.375 66.667969 50.511718 30.953125-16.523437 68.734375 5.851563 68.734375 41.222656zm0 0" fill="#eef6ff"/><path d="m512 210.195312c0 25.945313-21.082031 46.71875-46.707031 46.71875h-89.398438v-138.441406c27.40625-1.246094 58.285157 18.035156 67.371094 50.5 30.953125-16.523437 68.734375 5.851563 68.734375 41.222656zm0 0" fill="#dae2f2"/></svg>