<svg height="511pt" viewBox="0 -13 511.99978 511" width="511pt" xmlns="http://www.w3.org/2000/svg"><path d="m512 400.550781c0 46.773438-38.007812 84.226563-84.207031 84.226563h-319.796875c-34.386719 0-62.289063-27.875-62.289063-62.285156 0-34.402344 27.890625-62.289063 62.289063-62.289063h35.097656v-.222656c0-71.800781 60.152344-126.488281 126.109375-124.796875 56.671875.585937 104.28125 38.9375 118.882813 91.070312 55.75-29.851562 123.914062 10.542969 123.914062 74.296875zm0 0" fill="#7ed8f6"/><path d="m331.226562 107.457031v-5.25c0-1.195312-.957031-2.164062-2.152343-2.164062h-26.054688c-1.191406 0-2.164062.972656-2.164062 2.164062v74.03125c0 1.191407.972656 2.160157 2.164062 2.160157h26.054688c1.195312 0 2.152343-.96875 2.152343-2.160157v-8.082031c0-9.136719 7.417969-16.554688 16.554688-16.554688 9.152344 0 16.554688 7.417969 16.554688 16.554688v8.082031c0 19.453125-15.8125 35.269531-35.257813 35.269531h-26.058594c-19.445312 0-35.269531-15.816406-35.269531-35.269531v-74.03125c0-19.449219 15.824219-35.273437 35.269531-35.273437h26.058594c19.445313 0 35.257813 15.828125 35.257813 35.273437v5.25c0 9.152344-7.402344 16.554688-16.554688 16.554688-9.136719 0-16.554688-7.402344-16.554688-16.554688zm0 0" fill="#ffb99d"/><path d="m256.402344 66.019531c0 12.835938-10.40625 23.242188-23.242188 23.242188-12.835937 0-23.242187-10.40625-23.242187-23.242188 0-12.835937 10.40625-23.242187 23.242187-23.242187 12.835938 0 23.242188 10.40625 23.242188 23.242187zm0 0" fill="#ffb99d"/><path d="m512 400.550781c0 46.773438-38.007812 84.226563-84.207031 84.226563h-158.589844v-249.59375c56.671875.585937 104.28125 38.9375 118.882813 91.070312 55.75-29.851562 123.914062 10.542969 123.914062 74.296875zm0 0" fill="#5ecef4"/><g fill="#ff946a"><path d="m364.335938 102.207031v5.25c0 9.152344-7.40625 16.554688-16.554688 16.554688-9.136719 0-16.554688-7.402344-16.554688-16.554688v-5.25c0-1.195312-.960937-2.164062-2.152343-2.164062h-13.03125v-33.109375h13.03125c19.449219 0 35.261719 15.824218 35.261719 35.273437zm0 0"/><path d="m364.335938 168.15625v8.082031c0 19.453125-15.8125 35.269531-35.261719 35.269531h-13.03125v-33.109374h13.03125c1.195312 0 2.152343-.96875 2.152343-2.160157v-8.082031c0-9.136719 7.417969-16.554688 16.554688-16.554688 9.152344 0 16.554688 7.417969 16.554688 16.554688zm0 0"/><path d="m256.402344 66.019531c0 12.835938-10.40625 23.242188-23.242188 23.242188v-46.484375c12.835938 0 23.242188 10.40625 23.242188 23.242187zm0 0"/></g><path d="m218.023438 375.765625c0 60.210937-48.808594 109.011719-109.011719 109.011719-.515625 0-1.03125 0-1.558594-.007813-58.683594-.824219-106.585937-48.695312-107.4414062-107.378906-.5781248-39.351563 19.7343752-73.992187 50.5273432-93.609375v-225.695312c0-31.804688 25.792969-57.585938 57.601563-57.585938h1.746094c31.808593 0 57.589843 25.78125 57.589843 57.585938v225.695312c30.382813 19.351562 50.546876 53.296875 50.546876 91.984375zm0 0" fill="#eef6ff"/><path d="m218.023438 375.765625c0 60.210937-48.808594 109.011719-109.011719 109.011719v-484.277344h.875c31.808593 0 57.585937 25.78125 57.585937 57.585938v225.695312c30.386719 19.351562 50.550782 53.296875 50.550782 91.984375zm0 0" fill="#dae2f2"/><path d="m124.816406 160.695312v31.171876h42.660156v31.605468h-42.660156v135.964844c0 8.722656-7.078125 15.804688-15.804687 15.804688-8.734375 0-15.800781-7.082032-15.800781-15.804688v-298.105469c0-8.722656 7.066406-15.804687 15.800781-15.804687 8.722656 0 15.804687 7.082031 15.804687 15.804687v67.753907h42.660156v31.605468h-42.660156zm0 0" fill="#ffb99d"/><path d="m124.816406 160.695312v31.171876h42.660156v31.605468h-42.660156v135.964844c0 8.722656-7.078125 15.804688-15.804687 15.804688v-329.714844c8.722656 0 15.804687 7.082031 15.804687 15.804687v67.753907h42.660156v31.605468h-42.660156zm0 0" fill="#ff946a"/><path d="m157.582031 375.765625c0 26.824219-21.746093 48.582031-48.570312 48.582031s-48.578125-21.757812-48.578125-48.582031 21.753906-48.566406 48.578125-48.566406 48.570312 21.746093 48.570312 48.566406zm0 0" fill="#ff7037"/><path d="m157.582031 375.765625c0 26.824219-21.746093 48.582031-48.570312 48.582031v-97.148437c26.824219 0 48.570312 21.746093 48.570312 48.566406zm0 0" fill="#ff4c04"/></svg>