<svg height="511pt" viewBox="-16 0 511 511.99966" width="511pt" xmlns="http://www.w3.org/2000/svg"><path d="m392.148438 264.914062c0 94.632813-76.714844 171.347657-171.351563 171.347657-94.632813 0-171.347656-76.714844-171.347656-171.347657 0-94.636718 76.714843-171.351562 171.347656-171.351562 94.636719 0 171.351563 76.714844 171.351563 171.351562zm0 0" fill="#fff5cc"/><path d="m392.144531 264.910156c0 94.640625-76.71875 171.355469-171.347656 171.355469v-342.703125c94.632813 0 171.347656 76.714844 171.347656 171.347656zm0 0" fill="#ffeb99"/><path d="m251.726562 253.585938c0 17.082031-13.847656 30.929687-30.929687 30.929687-17.078125 0-30.925781-13.847656-30.925781-30.929687 0-17.078126 13.847656-30.925782 30.925781-30.925782 17.082031 0 30.929687 13.847656 30.929687 30.925782zm0 0" fill="#ff7037"/><path d="m137.808594 190.511719c-9.214844 0-16.683594 7.46875-16.683594 16.683593v18.554688c0 9.21875 7.46875 16.6875 16.683594 16.6875s16.683594-7.472656 16.683594-16.6875v-18.554688c0-9.214843-7.46875-16.683593-16.683594-16.683593zm0 0" fill="#ff7037"/><path d="m303.789062 190.511719c-9.214843 0-16.683593 7.46875-16.683593 16.683593v18.554688c0 9.21875 7.46875 16.6875 16.683593 16.6875 9.214844 0 16.683594-7.472656 16.683594-16.6875v-18.554688c0-9.214843-7.46875-16.683593-16.683594-16.683593zm0 0" fill="#d03b00"/><path d="m306.917969 274.046875c-8.992188-2.082031-17.941407 3.507813-20.023438 12.484375-7.164062 30.875-34.34375 52.4375-66.097656 52.4375-31.75 0-58.933594-21.5625-66.09375-52.4375-2.085937-8.976562-11.046875-14.566406-20.027344-12.484375-8.976562 2.085937-14.5625 11.050781-12.480469 20.027344 10.480469 45.183593 51.011719 78.261719 98.601563 78.261719 47.578125 0 88.117187-33.070313 98.605469-78.261719 2.082031-8.976563-3.507813-17.941407-12.484375-20.027344zm0 0" fill="#ff7037"/><path d="m441.105469 419.390625v65.074219c0 15.203125-12.328125 27.53125-27.542969 27.53125h-385.53125c-15.203125 0-27.53125-12.328125-27.53125-27.53125v-65.074219c0-15.199219 12.328125-27.527344 27.53125-27.527344h385.53125c15.214844 0 27.542969 12.328125 27.542969 27.527344zm0 0" fill="#ff7037"/><path d="m441.105469 419.390625v65.074219c0 15.203125-12.328125 27.53125-27.542969 27.53125h-192.765625v-120.132813h192.765625c15.214844 0 27.542969 12.328125 27.542969 27.527344zm0 0" fill="#ff4c04"/><path d="m193.3125 10.996094 26.214844 78.570312-111.214844 37.105469-26.214844-78.582031c-2.8125-8.421875 1.742188-17.535156 10.164063-20.34375l40.355469-13.453125 40.351562-13.460938c8.421875-2.8125 17.53125 1.734375 20.34375 10.164063zm0 0" fill="#ff7037"/><path d="m193.3125 10.996094 26.214844 78.570312-55.609375 18.550782-31.300781-93.824219 40.351562-13.460938c8.421875-2.8125 17.53125 1.734375 20.34375 10.164063zm0 0" fill="#ff4c04"/><path d="m299.804688 62.78125c2.808593 8.421875-1.734376 17.53125-10.164063 20.34375l-241.261719 80.492188c-8.445312 2.808593-17.539062-1.753907-20.347656-10.175782-2.808594-8.417968 1.738281-17.519531 10.167969-20.332031l241.261719-80.492187c8.429687-2.8125 17.535156 1.746093 20.34375 10.164062zm0 0" fill="#ffb99d"/><path d="m299.804688 62.78125c2.808593 8.421875-1.734376 17.53125-10.164063 20.34375l-120.632813 40.246094-10.179687-30.507813 120.632813-40.246093c8.429687-2.8125 17.535156 1.746093 20.34375 10.164062zm0 0" fill="#ffa17b"/><path d="m66.148438 512h75.164062l61.589844-120.140625h-75.164063zm0 0" fill="#ffb99d"/><path d="m300.285156 391.859375-61.589844 120.140625h75.164063l61.589844-120.140625zm0 0" fill="#ffa17b"/><path d="m478.339844 107.070312c-4.40625 7.644532-14.214844 10.367188-21.96875 5.882813l-12.542969-7.234375v15.523438c0 8.875-7.191406 16.078124-16.082031 16.078124-8.875 0-16.078125-7.203124-16.078125-16.078124v-15.523438l-12.542969 7.234375c-7.667969 4.453125-17.519531 1.824219-21.96875-5.882813-4.4375-7.6875-1.800781-17.53125 5.886719-21.96875l12.542969-7.234374-12.542969-7.246094c-7.6875-4.441406-10.324219-14.269532-5.886719-21.96875 4.441406-7.683594 14.28125-10.324219 21.96875-5.882813l12.542969 7.246094v-15.523437c0-8.890626 7.203125-16.082032 16.078125-16.082032 8.890625 0 16.082031 7.191406 16.082031 16.082032v15.523437l12.542969-7.25c7.699218-4.4375 17.527344-1.800781 21.96875 5.886719 4.445312 7.699218 1.808594 17.527344-5.886719 21.964844l-12.542969 7.25 12.542969 7.234374c7.695313 4.4375 10.332031 14.28125 5.886719 21.96875zm0 0" fill="#ffe477"/><path d="m478.339844 107.070312c-4.40625 7.644532-14.214844 10.367188-21.96875 5.882813l-12.542969-7.234375v15.523438c0 8.875-7.191406 16.078124-16.082031 16.078124v-118.910156c8.890625 0 16.082031 7.191406 16.082031 16.078125v15.523438l12.542969-7.246094c7.699218-4.4375 17.527344-1.800781 21.96875 5.886719 4.445312 7.695312 1.808594 17.527344-5.886719 21.964844l-12.542969 7.246093 12.542969 7.238281c7.695313 4.4375 10.332031 14.28125 5.886719 21.96875zm0 0" fill="#ffcd00"/><g fill="#d03b00"><path d="m251.726562 253.585938c0 17.078124-13.851562 30.929687-30.929687 30.929687v-61.855469c17.078125 0 30.929687 13.847656 30.929687 30.925782zm0 0"/><path d="m319.40625 294.066406c-10.484375 45.199219-51.03125 78.273438-98.609375 78.273438v-33.375c31.753906 0 58.929687-21.558594 66.09375-52.433594 2.089844-8.972656 11.03125-14.570312 20.023437-12.476562 8.984376 2.078124 14.570313 11.039062 12.492188 20.011718zm0 0"/></g></svg>