<svg height="512pt" viewBox="-22 0 512 512" width="512pt" xmlns="http://www.w3.org/2000/svg"><path d="m110.742188 72.785156v147.371094c-50.289063 0-49.140626.222656-55.375-.6875-31.320313-4.585938-55.367188-31.558594-55.367188-64.148438v-132.699218c0-8.105469 6.566406-14.671875 14.671875-14.671875 33.996094 0 34.585937-.203125 40.695313.6875 31.320312 4.574219 55.375 31.546875 55.375 64.148437zm0 0" fill="#ff7c48"/><path d="m110.742188 72.785156v147.371094c-50.289063 0-49.140626.222656-55.375-.6875v-210.832031c31.320312 4.574219 55.375 31.546875 55.375 64.148437zm0 0" fill="#ff6426"/><path d="m110.738281 142.992188v77.15625c-12.0625 0-20.863281.675781-33.265625-4.167969-22.761718-8.890625-38.886718-31.027344-38.886718-56.9375v-70.246094c0-3.8125 3.097656-6.910156 6.910156-6.910156 6.015625 0 17.894531-.523438 31.976562 6.695312 19.75 10.121094 33.265625 30.691407 33.265625 54.410157zm0 0" fill="#ffe477"/><path d="m110.738281 142.992188v77.15625c-12.0625 0-20.863281.675781-33.265625-4.167969v-127.398438c19.75 10.121094 33.265625 30.691407 33.265625 54.410157zm0 0" fill="#ffcd00"/><path d="m468.140625 132.839844c0 8.4375-6.851563 15.289062-15.289063 15.289062h-53.277343c-8.4375 0-15.289063-6.851562-15.289063-15.289062 0-8.449219 6.851563-15.289063 15.289063-15.289063h53.277343c8.4375 0 15.289063 6.839844 15.289063 15.289063zm0 0" fill="#ffd422"/><path d="m468.140625 132.839844c0 8.4375-6.851563 15.289062-15.289063 15.289062h-53.277343c-8.4375 0-15.289063-6.851562-15.289063-15.289062zm0 0" fill="#ddb100"/><path d="m275.460938 343.171875v153.539063c0 8.441406-6.839844 15.289062-15.289063 15.289062-8.441406 0-15.289063-6.847656-15.289063-15.289062v-153.539063c0-8.441406 6.847657-15.289063 15.289063-15.289063 8.449219 0 15.289063 6.847657 15.289063 15.289063zm0 0" fill="#ff4c04"/><path d="m275.460938 343.171875v153.539063c0 8.441406-6.839844 15.289062-15.289063 15.289062v-184.117188c8.449219 0 15.289063 6.847657 15.289063 15.289063zm0 0" fill="#d03b00"/><path d="m400.371094 444.167969c0 8.449219-6.839844 15.289062-15.289063 15.289062h-265.242187c-8.449219 0-15.289063-6.839843-15.289063-15.289062 0-8.4375 6.839844-15.289063 15.289063-15.289063h265.242187c8.449219 0 15.289063 6.851563 15.289063 15.289063zm0 0" fill="#ffd422"/><path d="m400.371094 444.167969c0 8.449219-6.839844 15.289062-15.289063 15.289062h-265.242187c-8.449219 0-15.289063-6.839843-15.289063-15.289062zm0 0" fill="#ddb100"/><path d="m400.371094 444.167969c0 3.84375-1.4375 7.675781-4.3125 10.640625l-35.519532 36.652344c-5.871093 6.066406-15.578124 6.210937-21.621093.335937-6.0625-5.871094-6.214844-15.550781-.335938-21.617187l25.207031-26.011719-25.207031-26.011719c-5.878906-6.054688-5.726562-15.734375.335938-21.617188 6.054687-5.871093 15.738281-5.726562 21.621093.335938l35.519532 36.652344c2.875 2.964844 4.3125 6.800781 4.3125 10.640625zm0 0" fill="#ff4c04"/><path d="m400.371094 444.167969c0 3.84375-1.4375 7.675781-4.3125 10.640625l-35.519532 36.652344c-5.871093 6.066406-15.578124 6.210937-21.621093.335937-6.0625-5.871094-6.214844-15.550781-.335938-21.617187l25.207031-26.011719zm0 0" fill="#d03b00"/><path d="m186.03125 444.167969-21.585938 45.070312c-2.082031 4.34375-6.464843 7.105469-11.285156 7.105469h-68.199218c-5.503907 0-9.121094-5.746094-6.746094-10.710938l19.867187-41.464843-19.867187-41.460938c-2.375-4.964843 1.242187-10.703125 6.746094-10.703125h68.199218c4.820313 0 9.203125 2.761719 11.285156 7.105469zm0 0" fill="#ff4c04"/><path d="m186.03125 444.167969-21.585938 45.070312c-2.082031 4.34375-6.464843 7.105469-11.285156 7.105469h-68.199218c-5.503907 0-9.121094-5.746094-6.746094-10.710938l19.867187-41.464843zm0 0" fill="#d03b00"/><path d="m442.167969 59.617188c0 18.058593-14.644531 32.714843-32.714844 32.714843h-99.46875v-.160156c-16.574219-1.601563-29.53125-15.566406-29.53125-32.554687 0-18.074219 14.648437-32.71875 32.71875-32.71875 6.6875 0 12.894531 2.007812 18.070313 5.441406.207031-17.734375 14.515624-32.085938 32.230468-32.3281252.164063-.0117188.316406-.0117188.480469-.0117188 17.011719 0 30.972656 12.964844 32.5625 29.558594 3.976563-1.710938 8.339844-2.660156 12.9375-2.660156 18.070313 0 32.714844 14.644531 32.714844 32.71875zm0 0" fill="#ff4c04"/><path d="m442.167969 59.617188c0 18.058593-14.644531 32.714843-32.714844 32.714843h-45.980469v-92.3203122c.164063-.0117188.316406-.0117188.480469-.0117188 17.011719 0 30.972656 12.964844 32.5625 29.558594 3.976563-1.710938 8.339844-2.660156 12.9375-2.660156 18.070313 0 32.714844 14.644531 32.714844 32.71875zm0 0" fill="#d03b00"/><path d="m409.605469 110.488281v109.660157c0 29.824218-8.738281 57.597656-23.789063 80.929687h-68.464844v-190.589844c0-25.472656 20.648438-46.121093 46.121094-46.121093 25.480469 0 46.132813 20.648437 46.132813 46.121093zm0 0" fill="#ffb99d"/><path d="m409.605469 110.488281v109.660157c0 29.824218-8.738281 57.597656-23.789063 80.929687h-22.34375v-236.710937c25.480469 0 46.132813 20.648437 46.132813 46.121093zm0 0" fill="#ff946a"/><path d="m378.261719 118.050781c0 8.164063-6.621094 14.785157-14.785157 14.785157-8.167968 0-14.785156-6.621094-14.785156-14.785157 0-8.167969 6.617188-14.789062 14.785156-14.789062 8.164063 0 14.785157 6.621093 14.785157 14.789062zm0 0" fill="#ff4c04"/><path d="m378.261719 118.050781c0 8.164063-6.613281 14.789063-14.789063 14.789063v-29.578125c8.175782 0 14.789063 6.625 14.789063 14.789062zm0 0" fill="#bf3700"/><path d="m110.742188 220.152344c0 82.527344 66.902343 149.429687 149.433593 149.429687 52.707031 0 99.046875-27.296875 125.644531-68.507812 15.050782-23.324219 23.785157-51.105469 23.785157-80.921875zm0 0" fill="#ff7c48"/><path d="m409.605469 220.148438c0 29.824218-8.738281 57.597656-23.789063 80.929687-26.59375 41.207031-72.9375 68.503906-125.644531 68.503906v-149.433593zm0 0" fill="#ff6426"/><path d="m317.347656 220.152344c0 36.417968-24.066406 67.230468-57.171875 77.371094-7.511719 2.304687-15.480469 3.546874-23.746093 3.546874-44.695313 0-80.917969-36.222656-80.917969-80.917968zm0 0" fill="#ffa17b"/><path d="m317.347656 220.152344c0 36.417968-24.066406 67.230468-57.171875 77.371094v-77.371094zm0 0" fill="#ff946a"/></svg>