<svg height="512pt" viewBox="-1 0 512 512" width="512pt" xmlns="http://www.w3.org/2000/svg"><path d="m425.683594 214.792969c0 71.578125-58.03125 129.609375-129.617188 129.609375-71.578125 0-129.609375-58.03125-129.609375-129.609375 0-71.585938 58.03125-129.605469 129.609375-129.605469 71.585938 0 129.617188 58.019531 129.617188 129.605469zm0 0" fill="#ffeb99"/><path d="m425.683594 214.792969c0 71.578125-58.03125 129.609375-129.617188 129.609375v-259.214844c71.585938 0 129.617188 58.019531 129.617188 129.605469zm0 0" fill="#ffde55"/><path d="m495.269531 199.195312h-25.226562c-8.613281 0-15.59375 6.984376-15.59375 15.59375 0 8.613282 6.980469 15.597657 15.59375 15.597657h25.226562c8.613281 0 15.59375-6.984375 15.59375-15.597657 0-8.609374-6.980469-15.59375-15.59375-15.59375zm0 0" fill="#ddb100"/><path d="m425.898438 62.910156-17.835938 17.835938c-6.089844 6.089844-6.089844 15.964844 0 22.054687 6.085938 6.085938 15.960938 6.089844 22.050781 0l17.839844-17.835937c6.089844-6.09375 6.089844-15.964844 0-22.054688s-15.964844-6.089844-22.054687 0zm0 0" fill="#ddb100"/><path d="m430.113281 326.78125c-6.089843-6.089844-15.964843-6.089844-22.054687 0-6.085938 6.089844-6.085938 15.964844 0 22.054688l17.839844 17.835937c6.089843 6.089844 15.960937 6.089844 22.050781 0 6.089843-6.089844 6.089843-15.960937 0-22.054687zm0 0" fill="#ddb100"/><g fill="#ffcd00"><path d="m122.097656 199.195312h-25.226562c-8.613282 0-15.59375 6.984376-15.59375 15.59375 0 8.613282 6.980468 15.597657 15.59375 15.597657h25.226562c8.613282 0 15.59375-6.984375 15.59375-15.597657 0-8.609374-6.980468-15.59375-15.59375-15.59375zm0 0"/><path d="m311.660156 15.59375v25.222656c0 8.617188-6.976562 15.59375-15.59375 15.59375-8.609375 0-15.59375-6.976562-15.59375-15.59375v-25.222656c0-8.617188 6.984375-15.59375 15.59375-15.59375 8.617188 0 15.59375 6.976562 15.59375 15.59375zm0 0"/><path d="m311.660156 388.761719v25.230469c0 8.609374-6.976562 15.597656-15.59375 15.597656-8.609375 0-15.59375-6.988282-15.59375-15.597656v-25.230469c0-8.605469 6.984375-15.59375 15.59375-15.59375 8.617188 0 15.59375 6.984375 15.59375 15.59375zm0 0"/><path d="m166.242188 62.910156c-6.089844-6.089844-15.964844-6.089844-22.054688 0s-6.089844 15.960938 0 22.050782l17.839844 17.839843c6.089844 6.085938 15.960937 6.085938 22.050781-.003906s6.089844-15.960937 0-22.050781zm0 0"/><path d="m236.113281 208.9375c8.609375 0 15.59375-6.980469 15.59375-15.59375v-12.476562c0-8.613282-6.984375-15.59375-15.59375-15.59375-8.613281 0-15.597656 6.980468-15.597656 15.59375v12.476562c0 8.613281 6.984375 15.59375 15.597656 15.59375zm0 0"/></g><path d="m353.621094 165.273438c-8.609375 0-15.59375 6.980468-15.59375 15.59375v12.476562c0 8.613281 6.984375 15.59375 15.59375 15.59375 8.613281 0 15.597656-6.980469 15.597656-15.59375v-12.476562c0-8.613282-6.984375-15.59375-15.597656-15.59375zm0 0" fill="#ddb100"/><path d="m273.886719 262.695312h-5.800781c-9.628907 0-17.460938-7.832031-17.460938-17.457031 0-8.613281-6.980469-15.597656-15.59375-15.597656s-15.59375 6.984375-15.59375 15.597656c0 26.824219 21.824219 48.648438 48.648438 48.648438h5.800781c8.609375 0 15.59375-6.984375 15.59375-15.59375 0-8.613281-6.984375-15.597657-15.59375-15.597657zm0 0" fill="#ffcd00"/><path d="m136.480469 511.582031c-3.363281.277344-6.707031.417969-10.042969.417969-6.65625 0-13.253906-.519531-19.71875-1.542969-72.050781-11.40625-118.730469-80.90625-104.003906-150.820312 6.6875-31.792969 25.5-60.109375 52.546875-78.539063 20.613281-14.054687 45.523437-21.910156 71.175781-21.933594 13.671875-.007812 27.566406 2.207032 41.144531 6.894532 31.4375 10.851562 58.074219 33.925781 72.882813 64.933594 38.238281 80.222656-15.8125 173.578124-103.984375 180.589843zm0 0" fill="#beebfa"/><path d="m136.480469 511.582031c-3.363281.277344-6.707031.417969-10.042969.417969v-252.835938c13.671875-.007812 27.566406 2.207032 41.144531 6.894532 31.4375 10.851562 58.074219 33.925781 72.882813 64.933594 38.238281 80.222656-15.8125 173.578124-103.984375 180.589843zm0 0" fill="#7ed8f6"/><path d="m173.476562 434.175781-36.996093 77.40625c-3.363281.277344-6.707031.417969-10.042969.417969-6.65625 0-13.253906-.519531-19.71875-1.542969l-20.8125-86.027343c-2.550781-10.53125-9.167969-19.617188-18.417969-25.257813l-64.773437-39.535156c6.6875-31.792969 25.5-60.109375 52.546875-78.539063l71.175781 43.441406 2.632812 1.605469c9.199219 5.609375 12.105469 17.613281 6.484376 26.800781l-9.117188 14.941407-12.917969 21.183593c-2.976562 4.878907 1.421875 10.925782 6.984375 9.582032l5.933594-1.433594 11.648438-2.824219c7.765624-1.878906 15.957031-.597656 22.777343 3.566407l4.988281 3.050781c11.40625 6.960937 14.851563 21.933593 7.625 33.164062zm0 0" fill="#00ee8a"/><path d="m135.554688 352.945312-9.117188 14.941407v-43.347657l2.632812 1.605469c9.199219 5.609375 12.105469 17.613281 6.484376 26.800781zm0 0" fill="#00cc76"/><path d="m173.476562 434.175781-36.996093 77.40625c-3.363281.277344-6.707031.417969-10.042969.417969v-114.78125l11.648438-2.824219c7.765624-1.878906 15.957031-.597656 22.777343 3.566407l4.988281 3.050781c11.40625 6.960937 14.851563 21.933593 7.625 33.164062zm0 0" fill="#00cc76"/><path d="m240.464844 330.988281-26.984375 6.53125c-14.921875 3.609375-29.953125-5.5625-33.566407-20.492187l-12.332031-50.972656c31.4375 10.855468 58.070313 33.933593 72.882813 64.933593zm0 0" fill="#00cc76"/><path d="m311.660156 15.59375v25.222656c0 8.617188-6.976562 15.59375-15.59375 15.59375v-56.410156c8.617188 0 15.59375 6.976562 15.59375 15.59375zm0 0" fill="#ddb100"/><path d="m311.660156 388.761719v25.230469c0 8.609374-6.976562 15.597656-15.59375 15.597656v-56.421875c8.617188 0 15.59375 6.984375 15.59375 15.59375zm0 0" fill="#ddb100"/></svg>