<svg height="512pt" viewBox="0 0 512 512.00035" width="512pt" xmlns="http://www.w3.org/2000/svg"><path d="m243.023438 433.976562c-6.488282.75-13.085938 1.214844-19.800782 1.347657-13.476562.296875-27.378906-.660157-41.523437-3.035157-.359375-.058593-.71875-.121093-1.078125-.183593-122.730469-21.21875-201.316406-140.390625-175.820313-259.6875.09375-.464844.195313-.925781.296875-1.390625 13.058594-59.308594 49.78125-108.738282 98.871094-138.953125 37.511719-23.089844 78.863281-33.164063 119.253906-31.980469 93.871094 2.753906 182.625 66.269531 206.332032 168.386719 30.214843 130.132812-62.289063 251.214843-186.53125 265.496093zm0 0" fill="#beebfa"/><path d="m243.023438 433.976562c-6.488282.75-13.085938 1.214844-19.800782 1.347657v-435.230469c93.871094 2.753906 182.625 66.269531 206.332032 168.386719 30.214843 130.132812-62.289063 251.214843-186.53125 265.496093zm0 0" fill="#7ed8f6"/><path d="m305.785156 305.757812-62.761718 128.21875c-20.023438 2.265626-40.585938 1.871094-62.402344-1.871093l-33.804688-145.554688c-4.441406-19.171875-16.324218-35.796875-33.03125-46.199219l-108.984375-67.933593c.09375-.464844.195313-.925781.296875-1.390625 13.058594-59.308594 49.78125-108.738282 98.871094-138.953125l119.253906 74.300781 3.710938 2.3125c.03125.03125.074218.050781.101562.070312 16.542969 10.382813 21.558594 32.167969 11.226563 48.753907-8.335938 13.394531-8.695313 13.960937-15.039063 24.148437-4.308594 6.90625-11.378906 18.257813-25.617187 41.101563-5.5 8.832031 2.402343 19.890625 12.519531 17.539062 11.824219-2.746093 18.503906-4.285156 32.035156-7.421875 24.550782-5.707031 40.566406 6.382813 50.34375 12.480469 20.601563 12.839844 24.910156 38.140625 13.28125 60.398437zm0 0" fill="#00ee8a"/><path d="m238.261719 157.511719c-8.335938 13.394531-8.695313 13.960937-15.039063 24.148437v-75.285156l3.710938 2.3125c.03125.03125.074218.050781.101562.070312 16.542969 10.382813 21.558594 32.167969 11.226563 48.753907zm0 0" fill="#00cc76"/><path d="m305.785156 305.757812-62.761718 128.21875c-6.652344.753907-12.28125 1.160157-19.800782 1.347657v-198.058594c5.878906-1.367187 6.355469-1.46875 18.9375-4.386719 24.550782-5.707031 40.566406 6.382813 50.34375 12.480469 20.601563 12.839844 24.910156 38.140625 13.28125 60.398437zm0 0" fill="#00cc76"/><path d="m511.976562 409.988281c0 56.339844-45.671874 102.011719-102.003906 102.011719-.496094 0-.976562 0-1.460937-.011719-54.910157-.769531-99.746094-45.574219-100.539063-100.484375-.539062-36.832031 18.457032-69.234375 47.28125-87.597656v-211.191406c0-29.769532 24.132813-53.890625 53.890625-53.890625h1.644531c29.761719 0 53.890626 24.121093 53.890626 53.890625v211.191406c28.429687 18.105469 47.296874 49.875 47.296874 86.082031zm0 0" fill="#eef6ff"/><path d="m511.976562 409.988281c0 56.339844-45.671874 102.011719-102.003906 102.011719v-453.175781h.816406c29.761719 0 53.890626 24.121093 53.890626 53.890625v211.191406c28.429687 18.105469 47.296874 49.875 47.296874 86.082031zm0 0" fill="#dae2f2"/><path d="m426.082031 115.75v275.941406c0 8.902344-7.21875 16.121094-16.113281 16.121094-8.902344 0-16.117188-7.21875-16.117188-16.121094v-275.941406c0-8.902344 7.214844-16.109375 16.117188-16.109375 8.894531 0 16.113281 7.207031 16.113281 16.109375zm0 0" fill="#ffb99d"/><path d="m455.421875 409.980469c0 25.105469-20.347656 45.460937-45.453125 45.460937-25.101562 0-45.460938-20.355468-45.460938-45.460937s20.359376-45.449219 45.460938-45.449219c25.105469 0 45.453125 20.34375 45.453125 45.449219zm0 0" fill="#ff7037"/><path d="m409.972656 179.058594h54.707032v32.230468h-54.707032zm0 0" fill="#ff4c04"/><path d="m409.972656 245.53125h54.707032v32.230469h-54.707032zm0 0" fill="#ff4c04"/><path d="m426.082031 115.75v275.941406c0 8.902344-7.21875 16.121094-16.113281 16.121094v-308.171875c8.894531 0 16.113281 7.207031 16.113281 16.109375zm0 0" fill="#ffa17b"/><path d="m455.421875 409.980469c0 25.105469-20.347656 45.460937-45.453125 45.460937v-90.910156c25.105469 0 45.453125 20.34375 45.453125 45.449219zm0 0" fill="#ff4c04"/></svg>