<svg height="512pt" viewBox="0 -119 512 512" width="512pt" xmlns="http://www.w3.org/2000/svg"><path d="m512 181.589844c0 51.363281-41.75 92.480468-92.46875 92.480468h-351.128906c-37.777344 0-68.402344-30.625-68.402344-68.390624 0-37.777344 30.625-68.402344 68.402344-68.402344h38.53125c0-80.503906 68.472656-143.671875 149.066406-136.757813 57.5 5 104.828125 45.515625 119.941406 99.480469 61.210938-32.761719 136.058594 11.578125 136.058594 81.589844zm0 0" fill="#9ee2f8"/><path d="m512 181.589844c0 51.363281-41.75 92.480468-92.46875 92.480468h-163.53125v-273.550781c57.5 5 104.828125 45.515625 119.941406 99.480469 12.988282-6.949219 27.816406-10.898438 43.570313-10.898438 51.082031 0 92.488281 41.40625 92.488281 92.488282zm0 0" fill="#7ed8f6"/></svg>