<svg height="512pt" viewBox="-5 0 511 512" width="512pt" xmlns="http://www.w3.org/2000/svg"><path d="m288.503906 233.757812v74.433594c0 13.835938-11.207031 25.066406-25.054687 25.085938 0 0-72.714844 0-74.253907 0l-5.464843 163.199218h-85.351563l-3.21875-95.878906h-65.261718c-13.859376 0-25.089844-11.226562-25.089844-25.085937v-74.433594c0-10.984375 8.894531-19.898437 19.902344-19.898437 10.992187 0 19.902343 8.910156 19.902343 19.898437v51.882813c0 4.328124 3.507813 7.835937 7.835938 7.835937h41.375c-6.046875-180.6875-5.679688-169.277344-5.679688-170.804687 0-29.082032 23.585938-52.886719 52.902344-52.886719.332031 0 .652344 0 .976563.011719 29.523437.527343 52.988281 25.199218 51.910156 54.828124l-3.40625 101.519532h50.921875c4.003906 0 7.253906-3.25 7.253906-7.257813v-51.972656c0-10.792969 8.390625-19.984375 19.175781-20.367187 11.324219-.40625 20.625 8.652343 20.625 19.890624zm0 0" fill="#00dd80"/><path d="m288.503906 233.757812v74.433594c0 13.835938-11.207031 25.066406-25.054687 25.085938 0 0-72.714844 0-74.253907 0l-5.464843 163.199218h-41.707031v-359.359374c29.523437.527343 52.988281 25.199218 51.910156 54.828124l-3.40625 101.519532h50.921875c4.003906 0 7.253906-3.25 7.253906-7.257813v-51.972656c0-10.792969 8.390625-19.984375 19.175781-20.367187 11.324219-.40625 20.625 8.652343 20.625 19.890624zm0 0" fill="#00aa63"/><path d="m388.953125 58.800781c-30.15625 0-54.6875 24.53125-54.6875 54.683594 0 30.15625 24.53125 54.6875 54.6875 54.6875 30.152344 0 54.683594-24.53125 54.683594-54.6875 0-30.152344-24.53125-54.683594-54.683594-54.683594zm0 0" fill="#ffde55"/><path d="m443.632812 113.492188c0 30.144531-24.527343 54.683593-54.683593 54.683593v-109.371093c30.15625 0 54.683593 24.527343 54.683593 54.6875zm0 0" fill="#ffcd00"/><path d="m486.914062 97.960938h-12.40625c-8.574218 0-15.523437 6.949218-15.523437 15.523437s6.949219 15.523437 15.523437 15.523437h12.40625c8.570313 0 15.523438-6.949218 15.523438-15.523437s-6.953125-15.523437-15.523438-15.523437zm0 0" fill="#ffde55"/><path d="m318.921875 113.484375c0-8.574219-6.949219-15.523437-15.523437-15.523437h-12.40625c-8.574219 0-15.523438 6.949218-15.523438 15.523437s6.949219 15.523437 15.523438 15.523437h12.40625c8.574218 0 15.523437-6.949218 15.523437-15.523437zm0 0" fill="#fff1b6"/><path d="m460.425781 63.964844 8.773438-8.769532c6.0625-6.0625 6.058593-15.894531 0-21.957031-6.0625-6.058593-15.894531-6.058593-21.957031 0l-8.769532 8.773438c-6.0625 6.0625-6.0625 15.890625 0 21.953125s15.890625 6.0625 21.953125 0zm0 0" fill="#ffde55"/><g fill="#fff1b6"><path d="m317.480469 163.003906-8.773438 8.773438c-6.0625 6.0625-6.0625 15.890625 0 21.953125 6.058594 6.0625 15.890625 6.0625 21.953125 0l8.773438-8.773438c6.0625-6.0625 6.0625-15.890625 0-21.953125s-15.890625-6.0625-21.953125 0zm0 0"/><path d="m388.953125 0c-8.574219 0-15.523437 6.953125-15.523437 15.523438v12.40625c0 8.574218 6.949218 15.523437 15.523437 15.523437 8.570313 0 15.523437-6.949219 15.523437-15.523437v-12.40625c0-8.570313-6.953124-15.523438-15.523437-15.523438zm0 0"/><path d="m388.953125 183.515625c-8.574219 0-15.523437 6.949219-15.523437 15.523437v12.40625c0 8.574219 6.949218 15.523438 15.523437 15.523438 8.570313 0 15.523437-6.949219 15.523437-15.523438v-12.40625c0-8.574218-6.953124-15.523437-15.523437-15.523437zm0 0"/></g><path d="m460.425781 163.003906c-6.0625-6.0625-15.890625-6.0625-21.953125 0s-6.0625 15.890625 0 21.953125l8.769532 8.773438c6.0625 6.0625 15.890624 6.0625 21.957031 0 6.058593-6.0625 6.0625-15.890625 0-21.953125zm0 0" fill="#ffde55"/><path d="m330.660156 33.238281c-6.0625-6.058593-15.890625-6.058593-21.953125 0-6.0625 6.0625-6.0625 15.894531 0 21.957031l8.773438 8.769532c6.0625 6.0625 15.890625 6.0625 21.953125 0s6.0625-15.890625 0-21.953125zm0 0" fill="#fff1b6"/><path d="m427.410156 425.367188v22.25c0 8.570312-6.957031 15.523437-15.523437 15.523437h-24.839844v33.335937c0 8.570313-6.953125 15.523438-15.523437 15.523438-.175782 0-.351563 0-.519532-.011719-8.339844-.269531-15.003906-7.117187-15.003906-15.511719v-65.253906h-25.875c-8.578125 0-15.523438-6.945312-15.523438-15.523437v-32.082031c0-8.570313 6.945313-15.523438 15.523438-15.523438 8.570312 0 15.523438 6.953125 15.523438 15.523438v16.558593h10.351562v-42.082031c0-8.402344 6.664062-15.242188 15.003906-15.511719.167969-.011719.34375-.011719.519532-.011719 8.570312 0 15.523437 6.945313 15.523437 15.523438v74h9.3125v-6.726562c0-8.582032 6.945313-15.523438 15.527344-15.523438 8.566406 0 15.523437 6.941406 15.523437 15.523438zm0 0" fill="#00dd80"/><path d="m427.410156 425.367188v22.25c0 8.570312-6.957031 15.523437-15.523437 15.523437h-24.839844v33.335937c0 8.570313-6.953125 15.523438-15.523437 15.523438-.175782 0-.351563 0-.519532-.011719v-169.40625c.167969-.011719.34375-.011719.519532-.011719 8.570312 0 15.523437 6.945313 15.523437 15.523438v74h9.3125v-6.726562c0-8.582032 6.945313-15.523438 15.527344-15.523438 8.566406 0 15.523437 6.941406 15.523437 15.523438zm0 0" fill="#00aa63"/><path d="m470.359375 496.476562c0 8.570313-6.957031 15.523438-15.523437 15.523438h-438.8125c-8.578126 0-15.523438-6.953125-15.523438-15.523438 0-8.582031 6.945312-15.523437 15.523438-15.523437h438.8125c8.566406 0 15.523437 6.941406 15.523437 15.523437zm0 0" fill="#ffe477"/><path d="m470.359375 496.476562c0 8.570313-6.957031 15.523438-15.523437 15.523438h-219.40625v-31.046875h219.40625c8.566406 0 15.523437 6.941406 15.523437 15.523437zm0 0" fill="#ffcd00"/><path d="m404.472656 15.523438v12.410156c0 8.570312-6.945312 15.523437-15.523437 15.523437v-43.457031c8.578125 0 15.523437 6.953125 15.523437 15.523438zm0 0" fill="#ffde55"/><path d="m404.472656 199.039062v12.40625c0 8.570313-6.945312 15.527344-15.523437 15.527344v-43.457031c8.578125 0 15.523437 6.953125 15.523437 15.523437zm0 0" fill="#ffde55"/></svg>