<svg height="511pt" viewBox="0 -54 511.99981 511" width="511pt" xmlns="http://www.w3.org/2000/svg"><path d="m509.851562 265.761719c-54.621093 74.390625-162.242187 82.148437-227.019531 17.371093-88.585937-88.582031-35.210937-241.070312 88.703125-255.152343 8.410156-.949219 14.671875 7.503906 11.503906 15.347656-16.839843 41.597656-14.335937 90.132813 8.917969 130.667969 22.738281 39.667968 63.074219 67.945312 110.359375 74.203125 8.339844 1.097656 12.519532 10.769531 7.535156 17.5625zm0 0" fill="#ffeb99"/><path d="m509.851562 265.761719c-54.621093 74.390625-162.242187 82.148437-227.019531 17.371093l109.125-109.136718c22.738281 39.667968 63.074219 67.945312 110.359375 74.203125 8.339844 1.097656 12.519532 10.769531 7.535156 17.5625zm0 0" fill="#ffda44"/><path d="m73.617188 184.679688c0 8.972656-7.273438 16.246093-16.246094 16.246093s-16.25-7.273437-16.25-16.246093c0-8.972657 7.277344-16.246094 16.25-16.246094s16.246094 7.273437 16.246094 16.246094zm0 0" fill="#ffeb99"/><path d="m228.167969 16.746094c0 8.976562-7.273438 16.25-16.246094 16.25s-16.25-7.273438-16.25-16.25c0-8.972656 7.277344-16.246094 16.25-16.246094s16.246094 7.273438 16.246094 16.246094zm0 0" fill="#ffeb99"/><path d="m462.039062 91.78125c0 8.972656-7.273437 16.246094-16.246093 16.246094-8.972657 0-16.25-7.273438-16.25-16.246094s7.277343-16.246094 16.25-16.246094c8.972656 0 16.246093 7.273438 16.246093 16.246094zm0 0" fill="#ffda44"/><path d="m161.773438 93.714844c-4.484376 7.777344-14.425782 10.429687-22.191407 5.945312l-12.675781-7.308594v15.683594c0 8.96875-7.265625 16.246094-16.246094 16.246094-8.96875 0-16.246094-7.277344-16.246094-16.246094v-15.683594l-12.675781 7.308594c-7.765625 4.484375-17.695312 1.832032-22.191406-5.945312-4.484375-7.765625-1.820313-17.710938 5.945313-22.195313l12.671874-7.3125-12.671874-7.320312c-7.765626-4.484375-10.429688-14.429688-5.945313-22.195313s14.425781-10.429687 22.191406-5.945312l12.675781 7.320312v-15.683594c0-8.976562 7.277344-16.246093 16.246094-16.246093 8.980469 0 16.246094 7.269531 16.246094 16.246093v15.6875l12.675781-7.324218c7.777344-4.484375 17.707031-1.820313 22.191407 5.945312 4.484374 7.769532 1.832031 17.710938-5.945313 22.195313l-12.671875 7.324219 12.671875 7.308593c7.777344 4.484375 10.429687 14.429688 5.945313 22.195313zm0 0" fill="#ffeb99"/><path d="m391.347656 336.226562c0 36.878907-29.898437 66.777344-66.785156 66.777344h-257.777344c-36.886718 0-66.785156-29.898437-66.785156-66.777344 0-36.882812 29.898438-66.78125 66.785156-66.78125 10.597656 0 20.628906 2.484376 29.546875 6.894532 8.339844-51.75 53.015625-91.265625 106.953125-91.648438.269532-.011718.527344-.011718.792969-.011718 52.410156 0 96.1875 36.9375 106.738281 86.1875 4.4375-.929688 9.039063-1.421876 13.746094-1.421876 36.886719 0 66.785156 29.898438 66.785156 66.78125zm0 0" fill="#dae2f2"/><path d="m391.347656 336.226562c0 36.878907-29.898437 66.777344-66.785156 66.777344h-120.484375v-218.324218c52.410156 0 96.1875 36.9375 106.738281 86.1875 4.4375-.929688 9.039063-1.421876 13.746094-1.421876 36.886719 0 66.785156 29.898438 66.785156 66.78125zm0 0" fill="#b9ceed"/><path d="m161.773438 93.714844c-4.484376 7.777344-14.425782 10.429687-22.191407 5.945312l-12.675781-7.308594v15.683594c0 8.96875-7.265625 16.246094-16.246094 16.246094v-120.144531c8.980469 0 16.246094 7.269531 16.246094 16.246093v15.6875l12.675781-7.324218c7.777344-4.484375 17.707031-1.820313 22.191407 5.945312 4.484374 7.769532 1.832031 17.710938-5.945313 22.195313l-12.671875 7.324219 12.671875 7.308593c7.777344 4.484375 10.429687 14.429688 5.945313 22.195313zm0 0" fill="#ffda44"/></svg>