<svg height="512pt" viewBox="0 -8 512 511" width="512pt" xmlns="http://www.w3.org/2000/svg"><g fill="#ffeb99"><path d="m320.019531 136.082031c0 35.300781-28.71875 64.019531-64.019531 64.019531s-64.019531-28.71875-64.019531-64.019531c0-35.3125 28.71875-64.03125 64.019531-64.03125s64.019531 28.71875 64.019531 64.03125zm0 0"/><path d="m168.257812 136.078125c0-9.042969-7.328124-16.371094-16.367187-16.371094h-15.097656c-9.039063 0-16.367188 7.328125-16.367188 16.371094 0 9.039063 7.328125 16.367187 16.367188 16.367187h15.097656c9.039063 0 16.367187-7.328124 16.367187-16.367187zm0 0"/><path d="m170.808594 198.121094-10.675782 10.671875c-6.390624 6.394531-6.390624 16.757812 0 23.148437 6.390626 6.394532 16.753907 6.394532 23.148438 0l10.675781-10.671875c6.390625-6.394531 6.390625-16.757812 0-23.148437-6.390625-6.394532-16.753906-6.394532-23.148437 0zm0 0"/><path d="m272.367188 16.867188v15.101562c0 9.035156-7.332032 16.371094-16.367188 16.371094s-16.367188-7.332032-16.367188-16.371094v-15.101562c0-9.035157 7.332032-16.367188 16.367188-16.367188s16.367188 7.332031 16.367188 16.367188zm0 0"/><path d="m272.367188 240.183594v15.101562c0 9.035156-7.332032 16.367188-16.367188 16.367188s-16.367188-7.332032-16.367188-16.367188v-15.101562c0-9.035156 7.332032-16.367188 16.367188-16.367188s16.367188 7.332032 16.367188 16.367188zm0 0"/><path d="m170.808594 74.035156c6.394531 6.390625 16.757812 6.390625 23.148437-.003906 6.390625-6.390625 6.390625-16.753906 0-23.144531l-10.675781-10.675781c-6.390625-6.390626-16.753906-6.390626-23.144531 0-6.394531 6.394531-6.394531 16.757812 0 23.148437zm0 0"/></g><path d="m233.902344 391.554688c0 58.632812-54.082032 104.320312-116.691406 104.441406-26.710938.050781-117.210938-14.648438-117.210938-77.296875v-31.140625c0-55.457032 57.246094-69.316406 117.210938-68.382813 21.710937.320313 43.777343 2.589844 63.617187 5.519531 62.679687 9.265626 53.074219 42.222657 53.074219 66.859376zm0 0" fill="#ff946a"/><path d="m233.902344 391.554688c0 58.632812-54.082032 104.320312-116.691406 104.441406v-176.820313c21.710937.320313 43.777343 2.589844 63.617187 5.519531 62.679687 9.265626 53.074219 42.222657 53.074219 66.859376zm0 0" fill="#ff7037"/><path d="m512 387.558594v31.140625c0 62.648437-90.5 77.347656-117.210938 77.296875-62.609374-.121094-116.691406-45.808594-116.691406-104.441406 0-24.636719-9.605468-57.59375 53.074219-66.859376 19.839844-2.929687 41.90625-5.199218 63.617187-5.519531 59.964844-.933593 117.210938 12.925781 117.210938 68.382813zm0 0" fill="#ff946a"/><path d="m512 387.558594v31.140625c0 62.648437-90.5 77.347656-117.210938 77.296875v-176.820313c59.964844-.933593 117.210938 12.925781 117.210938 68.382813zm0 0" fill="#ff7037"/><path d="m130.457031 382.320312-33.8125 33.808594c-6.019531 6.019532-15.78125 6.011719-21.800781 0-6.011719-6.019531-6.011719-15.78125 0-21.800781l33.8125-33.808594c2.414062-2.40625 5.421875-3.855469 8.554688-4.335937 4.6875-.710938 9.636718.726562 13.246093 4.335937 6.007813 6.019531 6.007813 15.78125 0 21.800781zm0 0" fill="#fffde5"/><path d="m171.304688 416.128906-46.007813 46.007813c-2.289063 2.289062-5.125 3.707031-8.085937 4.25-4.816407.894531-9.972657-.523438-13.703126-4.25-6.019531-6.023438-6.019531-15.78125 0-21.792969l13.703126-13.703125 32.300781-32.3125c6.023437-6.007813 15.78125-6.007813 21.792969 0 6.019531 6.019531 6.019531 15.78125 0 21.800781zm0 0" fill="#fffde5"/><path d="m130.457031 382.320312-13.246093 13.242188v-39.378906c4.6875-.710938 9.636718.726562 13.246093 4.335937 6.007813 6.019531 6.007813 15.78125 0 21.800781zm0 0" fill="#fff1b6"/><path d="m171.304688 416.128906-46.007813 46.007813c-2.289063 2.289062-5.125 3.707031-8.085937 4.25v-39.746094l32.300781-32.3125c6.023437-6.007813 15.78125-6.007813 21.792969 0 6.019531 6.019531 6.019531 15.78125 0 21.800781zm0 0" fill="#fff1b6"/><path d="m404.34375 377.519531-33.8125 33.8125c-6.011719 6.019531-15.769531 6.019531-21.789062 0-6.023438-6.019531-6.023438-15.769531 0-21.789062l33.808593-33.8125c3.351563-3.347657 7.859375-4.839844 12.238281-4.457031 3.480469.296874 6.882813 1.785156 9.554688 4.457031 6.019531 6.019531 6.019531 15.769531 0 21.789062zm0 0" fill="#fffde5"/><path d="m445.199219 411.332031-46.003907 46.003907c-1.316406 1.316406-2.816406 2.34375-4.40625 3.09375-5.703124 2.640624-12.691406 1.613281-17.386718-3.09375-6.019532-6.019532-6.019532-15.769532 0-21.789063l17.386718-17.382813 28.621094-28.621093c6.019532-6.023438 15.769532-6.023438 21.789063 0 6.023437 6.019531 6.023437 15.769531 0 21.789062zm0 0" fill="#fffde5"/><path d="m404.34375 377.519531-9.554688 9.554688v-35.800781c3.480469.296874 6.882813 1.785156 9.554688 4.457031 6.019531 6.019531 6.019531 15.769531 0 21.789062zm0 0" fill="#fff1b6"/><path d="m445.199219 411.332031-46.003907 46.003907c-1.316406 1.316406-2.816406 2.34375-4.40625 3.09375v-42.265626l28.621094-28.621093c6.019532-6.023438 15.769532-6.023438 21.789063 0 6.023437 6.019531 6.023437 15.769531 0 21.789062zm0 0" fill="#fff1b6"/><path d="m309.421875 375.496094c0 8.519531-6.902344 15.410156-15.410156 15.410156h-76.035157c-8.507812 0-15.410156-6.890625-15.410156-15.410156 0-8.503906 6.902344-15.410156 15.410156-15.410156h76.035157c8.507812 0 15.410156 6.90625 15.410156 15.410156zm0 0" fill="#ffde55"/><path d="m256 48.339844v-47.839844c9.035156 0 16.367188 7.332031 16.367188 16.367188v15.105468c0 9.035156-7.332032 16.367188-16.367188 16.367188zm0 0" fill="#ffda44"/><path d="m272.367188 240.183594v15.101562c0 9.035156-7.332032 16.367188-16.367188 16.367188v-47.835938c9.035156 0 16.367188 7.332032 16.367188 16.367188zm0 0" fill="#ffda44"/><path d="m320.019531 136.082031c0 35.300781-28.71875 64.019531-64.019531 64.019531v-128.050781c35.300781 0 64.019531 28.71875 64.019531 64.03125zm0 0" fill="#ffde55"/><path d="m351.863281 208.789062c6.394531 6.394532 6.394531 16.761719 0 23.15625-6.398437 6.398438-16.769531 6.375-23.144531 0l-10.675781-10.671874c-6.390625-6.394532-6.390625-16.761719 0-23.15625 6.386719-6.382813 16.753906-6.394532 23.148437 0zm0 0" fill="#ffda44"/><path d="m391.570312 136.082031c0 9.035157-7.320312 16.367188-16.367187 16.367188h-15.089844c-9.046875 0-16.371093-7.332031-16.371093-16.367188 0-9.046875 7.324218-16.367187 16.371093-16.367187h15.089844c9.046875 0 16.367187 7.320312 16.367187 16.367187zm0 0" fill="#ffda44"/><path d="m318.046875 74.035156c-6.394531-6.390625-6.394531-16.757812 0-23.152344l10.671875-10.671874c6.394531-6.394532 16.761719-6.394532 23.144531 0 6.394531 6.394531 6.394531 16.757812 0 23.152343l-10.671875 10.671875c-6.378906 6.378906-16.746094 6.398438-23.144531 0zm0 0" fill="#ffda44"/><path d="m309.421875 375.496094c0 8.519531-6.902344 15.410156-15.410156 15.410156h-38.011719v-30.820312h38.011719c8.507812 0 15.410156 6.90625 15.410156 15.410156zm0 0" fill="#ffcd00"/></svg>