<svg height="512pt" viewBox="-4 0 512 512" width="512pt" xmlns="http://www.w3.org/2000/svg"><path d="m390.910156 281.191406v120.007813c0 31.863281-13.527344 60.632812-35.140625 80.855469-19.816406 18.570312-46.433593 29.945312-75.671875 29.945312h-134.699218c-8.464844 0-15.3125-6.851562-15.3125-15.316406 0-8.453125 6.847656-15.3125 15.3125-15.3125h134.699218c19.898438 0 38.140625-7.289063 52.167969-19.347656 17.140625-14.710938 28.015625-36.515626 28.015625-60.824219v-120.007813c0-8.464844 6.851562-15.316406 15.3125-15.316406 8.453125 0 15.316406 6.851562 15.316406 15.316406zm0 0" fill="#ffeb99"/><path d="m501.105469 135.824219-112.472657 182.671875c-2.789062 4.519531-7.730468 7.277344-13.039062 7.277344-5.316406 0-10.257812-2.757813-13.046875-7.277344l-112.472656-182.671875c-3.71875-6.035157-2.796875-13.835938 2.214843-18.859375l112.472657-112.472656c2.992187-2.992188 6.914062-4.492188 10.832031-4.492188 3.921875 0 7.832031 1.5 10.824219 4.492188l112.472656 112.472656c5.023437 5.023437 5.929687 12.824218 2.214844 18.859375zm0 0" fill="#ff946a"/><path d="m92.109375 481.371094h-76.796875c-8.457031 0-15.3125 6.859375-15.3125 15.316406s6.855469 15.3125 15.3125 15.3125h76.796875c8.457031 0 15.3125-6.855469 15.3125-15.3125s-6.855469-15.316406-15.3125-15.316406zm0 0" fill="#ffd422"/><g fill="#beebfa"><path d="m352.175781 164.355469c0 20.839843-17.957031 37.785156-40.03125 37.785156h-292.308593c-8.453126 0-15.3125-6.859375-15.3125-15.3125s6.859374-15.3125 15.3125-15.3125h292.308593c5.09375 0 9.402344-3.277344 9.402344-7.160156 0-3.878907-4.308594-7.15625-9.402344-7.15625h-12.609375c-8.453125 0-15.3125-6.859375-15.3125-15.3125 0-8.464844 6.859375-15.3125 15.3125-15.3125h12.609375c22.074219 0 40.03125 16.945312 40.03125 37.78125zm0 0"/><path d="m276.546875 249.878906c0 8.464844-6.851563 15.3125-15.316406 15.3125h-74.320313c-8.453125 0-15.316406-6.847656-15.316406-15.3125 0-8.453125 6.863281-15.3125 15.316406-15.3125h74.320313c8.464843 0 15.316406 6.859375 15.316406 15.3125zm0 0"/><path d="m130.085938 249.878906c0 8.464844-6.863282 15.3125-15.316407 15.3125h-52.535156c-8.460937.011719-15.3125-6.847656-15.3125-15.300781-.011719-8.464844 6.851563-15.316406 15.304687-15.324219h52.542969c8.453125 0 15.316407 6.859375 15.316407 15.3125zm0 0"/><path d="m198.914062 110.257812c0 8.464844-6.847656 15.316407-15.3125 15.316407h-82.683593c-8.464844 0-15.3125-6.851563-15.3125-15.316407 0-8.453124 6.847656-15.3125 15.3125-15.3125h82.683593c8.464844 0 15.3125 6.859376 15.3125 15.3125zm0 0"/></g><path d="m501.105469 135.824219-112.472657 182.671875c-2.789062 4.519531-7.730468 7.277344-13.039062 7.277344v-325.773438c3.921875 0 7.832031 1.5 10.824219 4.492188l112.472656 112.472656c5.023437 5.023437 5.929687 12.824218 2.214844 18.859375zm0 0" fill="#ff7c48"/><path d="m198.914062 110.257812c0 8.464844-6.847656 15.316407-15.3125 15.316407h-41.335937v-30.628907h41.335937c8.464844 0 15.3125 6.859376 15.3125 15.3125zm0 0" fill="#7ed8f6"/><path d="m352.175781 164.355469c0 20.839843-17.957031 37.785156-40.03125 37.785156h-133.789062v-30.625h133.789062c5.09375 0 9.402344-3.277344 9.402344-7.160156 0-3.878907-4.308594-7.15625-9.402344-7.15625h-12.609375c-8.453125 0-15.3125-6.859375-15.3125-15.3125 0-8.464844 6.859375-15.3125 15.3125-15.3125h12.609375c22.074219 0 40.03125 16.945312 40.03125 37.78125zm0 0" fill="#7ed8f6"/><path d="m276.546875 249.878906c0 8.464844-6.851563 15.3125-15.316406 15.3125h-37.160157v-30.625h37.160157c8.464843 0 15.316406 6.859375 15.316406 15.3125zm0 0" fill="#7ed8f6"/><path d="m130.085938 249.878906c0 8.464844-6.863282 15.3125-15.316407 15.3125h-26.265625v-30.625h26.265625c8.453125 0 15.316407 6.859375 15.316407 15.3125zm0 0" fill="#7ed8f6"/><path d="m355.769531 482.054688c-19.816406 18.570312-46.433593 29.945312-75.671875 29.945312h-134.699218c-8.464844 0-15.3125-6.851562-15.3125-15.316406 0-8.453125 6.847656-15.3125 15.3125-15.3125h134.699218c19.898438 0 38.140625-7.289063 52.167969-19.347656zm0 0" fill="#ffd422"/></svg>