<svg height="512pt" viewBox="-2 0 512 512" width="512pt" xmlns="http://www.w3.org/2000/svg"><path d="m492.632812 48.164062h-477.015624c-8.625 0-15.617188 6.996094-15.617188 15.621094v432.597656c0 8.625 6.992188 15.617188 15.617188 15.617188h477.015624c8.625 0 15.617188-6.992188 15.617188-15.617188v-432.597656c0-8.625-6.992188-15.621094-15.617188-15.621094zm0 0" fill="#fff5cc"/><path d="m508.246094 63.789062v432.589844c0 8.628906-6.988282 15.617188-15.617188 15.617188h-238.503906v-463.824219h238.503906c8.628906 0 15.617188 6.984375 15.617188 15.617187zm0 0" fill="#ffe477"/><path d="m378.046875 321.957031h-15.691406c-9.667969 0-17.507813 7.839844-17.507813 17.507813 0 9.667968 7.835938 17.507812 17.507813 17.507812h15.691406c9.667969 0 17.507813-7.839844 17.507813-17.507812 0-9.667969-7.835938-17.507813-17.507813-17.507813zm0 0" fill="#eebf00"/><path d="m343.035156 275.3125 11.097656-11.09375c6.835938-6.839844 6.835938-17.921875 0-24.761719-6.839843-6.835937-17.921874-6.835937-24.761718 0l-11.09375 11.097657c-6.839844 6.839843-6.839844 17.921874 0 24.757812 6.835937 6.835938 17.921875 6.839844 24.757812 0zm0 0" fill="#eebf00"/><path d="m343.035156 403.617188c-6.835937-6.839844-17.921875-6.839844-24.757812 0-6.839844 6.835937-6.839844 17.921874 0 24.757812l11.09375 11.09375c6.835937 6.839844 17.921875 6.839844 24.761718 0 6.835938-6.835938 6.835938-17.921875 0-24.757812zm0 0" fill="#eebf00"/><path d="m492.632812 48.164062h-477.015624c-8.625 0-15.617188 6.996094-15.617188 15.621094v103.285156h508.25v-103.285156c0-8.625-6.992188-15.621094-15.617188-15.621094zm0 0" fill="#ff8859"/><path d="m508.246094 63.789062v103.285157h-254.121094v-118.902344h238.503906c8.628906 0 15.617188 6.984375 15.617188 15.617187zm0 0" fill="#ff6426"/><path d="m122.371094 0c-8.625 0-15.617188 6.992188-15.617188 15.617188v75.507812c0 8.625 6.992188 15.617188 15.617188 15.617188s15.617187-6.992188 15.617187-15.617188v-75.507812c0-8.625-6.992187-15.617188-15.617187-15.617188zm0 0" fill="#ffcd00"/><path d="m385.878906 0c-8.625 0-15.617187 6.992188-15.617187 15.617188v75.507812c0 8.625 6.992187 15.617188 15.617187 15.617188s15.617188-6.992188 15.617188-15.617188v-75.507812c0-8.625-6.992188-15.617188-15.617188-15.617188zm0 0" fill="#eebf00"/><g fill="#ffcd00"><path d="m254.125 272.417969c-36.96875 0-67.046875 30.078125-67.046875 67.046875s30.078125 67.046875 67.046875 67.046875 67.046875-30.078125 67.046875-67.046875-30.078125-67.046875-67.046875-67.046875zm0 0"/><path d="m163.402344 339.464844c0-9.667969-7.839844-17.507813-17.507813-17.507813h-15.695312c-9.667969 0-17.507813 7.839844-17.507813 17.507813 0 9.667968 7.839844 17.507812 17.507813 17.507812h15.695312c9.667969 0 17.507813-7.839844 17.507813-17.507812zm0 0"/><path d="m165.214844 403.617188-11.097656 11.09375c-6.835938 6.839843-6.835938 17.921874 0 24.757812 6.835937 6.839844 17.921874 6.839844 24.757812 0l11.097656-11.09375c6.839844-6.839844 6.839844-17.921875 0-24.757812-6.835937-6.839844-17.921875-6.839844-24.757812 0zm0 0"/><path d="m271.632812 215.546875v15.683594c0 9.675781-7.84375 17.507812-17.507812 17.507812s-17.507812-7.832031-17.507812-17.507812v-15.683594c0-9.675781 7.84375-17.507813 17.507812-17.507813s17.507812 7.832032 17.507812 17.507813zm0 0"/><path d="m271.632812 447.691406v15.695313c0 9.664062-7.84375 17.507812-17.507812 17.507812s-17.507812-7.84375-17.507812-17.507812v-15.695313c0-9.667968 7.84375-17.507812 17.507812-17.507812s17.507812 7.839844 17.507812 17.507812zm0 0"/></g><path d="m271.632812 215.546875v15.683594c0 9.675781-7.84375 17.507812-17.507812 17.507812v-50.699219c9.664062 0 17.507812 7.832032 17.507812 17.507813zm0 0" fill="#eebf00"/><path d="m271.632812 447.691406v15.695313c0 9.664062-7.84375 17.507812-17.507812 17.507812v-50.710937c9.664062 0 17.507812 7.839844 17.507812 17.507812zm0 0" fill="#eebf00"/><path d="m165.214844 275.3125c6.835937 6.835938 17.921875 6.839844 24.757812 0 6.839844-6.835938 6.839844-17.921875 0-24.757812l-11.097656-11.097657c-6.835938-6.835937-17.921875-6.835937-24.757812 0-6.835938 6.839844-6.835938 17.921875 0 24.761719zm0 0" fill="#ffcd00"/><path d="m321.175781 339.46875c0 36.964844-30.078125 67.042969-67.050781 67.042969v-134.09375c36.976562 0 67.050781 30.078125 67.050781 67.050781zm0 0" fill="#eebf00"/></svg>