<svg height="512pt" viewBox="0 -41 512 511" width="512pt" xmlns="http://www.w3.org/2000/svg"><path d="m478.457031 176.089844c-5.035156-5.035156-12.289062-7.847656-20.117187-6.792969-41.851563 5.636719-114.703125 18.546875-138.421875 42.265625-33.984375 33.980469-33.984375 89.078125 0 123.0625s89.082031 33.984375 123.0625 0c23.71875-23.71875 36.628906-96.570312 42.265625-138.421875 1.054687-7.828125-1.757813-15.082031-6.789063-20.113281zm0 0" fill="#ffda44"/><path d="m478.457031 176.089844-158.539062 158.535156c33.984375 33.984375 89.082031 33.984375 123.0625 0 23.71875-23.71875 36.628906-96.570312 42.265625-138.421875 1.054687-7.828125-1.757813-15.082031-6.789063-20.113281zm0 0" fill="#eebf00"/><path d="m441.042969 158.238281c0 20.40625-16.605469 37-37.007813 37h-69.554687c-8.550781 0-15.492188-6.941406-15.492188-15.492187 0-8.546875 6.941407-15.488282 15.492188-15.488282h69.554687c3.324219 0 6.03125-2.703124 6.03125-6.019531 0-3.324219-2.707031-6.03125-6.03125-6.03125h-10.75c-8.558594 0-15.488281-6.925781-15.488281-15.488281 0-8.550781 6.929687-15.488281 15.488281-15.488281h10.75c20.402344 0 37.007813 16.605469 37.007813 37.007812zm0 0" fill="#7ed8f6"/><path d="m441.042969 158.238281c0 20.40625-16.605469 37-37.007813 37h-32.09375v-30.980469h32.09375c3.324219 0 6.03125-2.703124 6.03125-6.019531 0-3.324219-2.707031-6.03125-6.03125-6.03125h-10.75c-8.558594 0-15.488281-6.925781-15.488281-15.488281 0-8.550781 6.929687-15.488281 15.488281-15.488281h10.75c20.402344 0 37.007813 16.605469 37.007813 37.007812zm0 0" fill="#2fc0f0"/><path d="m385.414062 291.03125c-20.132812 20.132812-34.867187 33.351562-44.296874 51.773438-8.4375 16.488281-12.617188 37.140624-12.617188 70.648437 0 8.550781-6.929688 15.488281-15.488281 15.488281-8.550781 0-15.488281-6.9375-15.488281-15.488281 0-51.371094 9.664062-78.867187 26.320312-101.636719 10.613281-14.507812 24.066406-27.085937 39.671875-42.6875 6.039063-6.050781 15.847656-6.050781 21.898437 0 6.050782 6.050782 6.050782 15.851563 0 21.902344zm0 0" fill="#ff6426"/><path d="m341.117188 342.804688c-8.4375 16.488281-12.617188 37.140624-12.617188 70.648437 0 8.550781-6.929688 15.488281-15.488281 15.488281-8.550781 0-15.488281-6.9375-15.488281-15.488281 0-51.371094 9.664062-78.867187 26.320312-101.636719zm0 0" fill="#d03b00"/><path d="m359.976562 53.917969c-4.804687-3.832031-11.109374-5.855469-17.855468-5.011719-53.546875 6.699219-163.164063 24.203125-197.277344 58.3125-45.746094 45.746094-45.746094 119.914062 0 165.660156s119.914062 45.746094 165.660156 0c34.109375-34.113281 51.613282-143.730468 58.3125-197.277344 1.089844-8.734374-2.621094-16.722656-8.839844-21.683593zm0 0" fill="#00dd80"/><path d="m359.976562 53.917969-215.132812 218.960937c45.746094 45.746094 119.914062 45.746094 165.65625 0 34.113281-34.109375 51.617188-143.730468 58.3125-197.277344 1.09375-8.734374-2.617188-16.722656-8.835938-21.683593zm0 0" fill="#00aa63"/><path d="m226.085938 213.535156c-30.914063 30.925782-50.296876 51.257813-62.203126 75.5-13.949218 28.367188-17.65625 62.101563-17.65625 124.417969 0 8.550781-6.941406 15.488281-15.488281 15.488281-8.5625 0-15.492187-6.9375-15.492187-15.488281 0-81.152344 6.910156-119.976563 32.609375-157.996094 13.25-19.589843 31.484375-38.96875 56.328125-63.824219 6.050781-6.050781 15.851562-6.050781 21.902344 0 6.050781 6.050782 6.050781 15.859376 0 21.902344zm0 0" fill="#ff7037"/><path d="m163.882812 289.035156c-13.949218 28.367188-17.65625 62.101563-17.65625 124.417969 0 8.550781-6.941406 15.488281-15.488281 15.488281-8.5625 0-15.492187-6.9375-15.492187-15.488281 0-81.152344 6.910156-119.976563 32.609375-157.996094zm0 0" fill="#ff4c04"/><path d="m291.40625 126.53125c0 20.289062-17.46875 36.800781-38.949219 36.800781h-228.945312c-8.558594 0-15.488281-6.929687-15.488281-15.488281 0-8.550781 6.929687-15.488281 15.488281-15.488281h228.945312c4.246094 0 7.972657-2.71875 7.972657-5.824219 0-3.109375-3.726563-5.835938-7.972657-5.835938h-11.957031c-8.550781 0-15.488281-6.9375-15.488281-15.488281s6.9375-15.488281 15.488281-15.488281h11.957031c21.480469 0 38.949219 16.511719 38.949219 36.8125zm0 0" fill="#beebfa"/><path d="m83.183594 221.992188c0 8.558593-6.925782 15.488281-15.488282 15.488281h-46.15625c-8.550781 0-15.488281-6.929688-15.488281-15.488281 0-8.550782 6.9375-15.492188 15.488281-15.492188h46.15625c8.5625 0 15.488282 6.941406 15.488282 15.492188zm0 0" fill="#7ed8f6"/><path d="m96.507812 280.085938c0 8.546874-6.941406 15.488281-15.492187 15.488281h-65.527344c-8.550781 0-15.488281-6.941407-15.488281-15.488281 0-8.5625 6.9375-15.492188 15.488281-15.492188h65.527344c8.550781 0 15.492187 6.929688 15.492187 15.492188zm0 0" fill="#9ee2f8"/><path d="m147.050781 37.496094c0 20.40625-16.605469 37-37.007812 37h-69.554688c-8.550781 0-15.488281-6.929688-15.488281-15.488282 0-8.550781 6.9375-15.488281 15.488281-15.488281h69.554688c3.324219 0 6.03125-2.695312 6.03125-6.023437 0-3.324219-2.707031-6.019532-6.03125-6.019532h-10.75c-8.558594 0-15.488281-6.9375-15.488281-15.488281 0-8.558593 6.929687-15.488281 15.488281-15.488281h10.75c20.402343 0 37.007812 16.59375 37.007812 36.996094zm0 0" fill="#9ee2f8"/><path d="m495.054688 413.453125c0 8.550781-6.9375 15.488281-15.488282 15.488281h-447.359375c-8.550781 0-15.488281-6.9375-15.488281-15.488281 0-8.558594 6.9375-15.488281 15.488281-15.488281h447.359375c8.550782 0 15.488282 6.929687 15.488282 15.488281zm0 0" fill="#00cc76"/><path d="m495.054688 413.453125c0 8.550781-6.9375 15.488281-15.488282 15.488281h-223.679687v-30.976562h223.679687c8.550782 0 15.488282 6.929687 15.488282 15.488281zm0 0" fill="#009959"/><path d="m512 61.402344c0 20.40625-16.605469 37-37.007812 37h-69.554688c-8.550781 0-15.488281-6.9375-15.488281-15.488282 0-8.550781 6.9375-15.488281 15.488281-15.488281h69.554688c3.324218 0 6.03125-2.707031 6.03125-6.023437 0-3.324219-2.707032-6.027344-6.03125-6.027344h-10.75c-8.558594 0-15.488282-6.929688-15.488282-15.488281 0-8.550781 6.929688-15.492188 15.488282-15.492188h10.75c20.402343 0 37.007812 16.605469 37.007812 37.007813zm0 0" fill="#beebfa"/><g fill="#7ed8f6"><path d="m512 61.402344c0 20.40625-16.605469 37-37.007812 37h-32.09375v-30.976563h32.09375c3.324218 0 6.03125-2.707031 6.03125-6.023437 0-3.324219-2.707032-6.027344-6.03125-6.027344h-10.75c-8.558594 0-15.488282-6.929688-15.488282-15.488281 0-8.550781 6.929688-15.492188 15.488282-15.492188h10.75c20.402343 0 37.007812 16.605469 37.007812 37.007813zm0 0"/><path d="m291.40625 126.53125c0 20.289062-17.46875 36.800781-38.949219 36.800781h-88.574219v-30.976562h88.574219c4.246094 0 7.972657-2.71875 7.972657-5.824219 0-3.109375-3.726563-5.835938-7.972657-5.835938h-11.957031c-8.550781 0-15.488281-6.9375-15.488281-15.488281s6.9375-15.488281 15.488281-15.488281h11.957031c21.480469 0 38.949219 16.511719 38.949219 36.8125zm0 0"/><path d="m147.050781 37.496094c0 20.40625-16.605469 37-37.007812 37h-26.859375v-30.976563h26.859375c3.324219 0 6.03125-2.695312 6.03125-6.023437 0-3.324219-2.707031-6.019532-6.03125-6.019532h-10.75c-8.558594 0-15.488281-6.9375-15.488281-15.488281 0-8.558593 6.929687-15.488281 15.488281-15.488281h10.75c20.402343 0 37.007812 16.59375 37.007812 36.996094zm0 0"/></g><path d="m83.183594 221.992188c0 8.558593-6.925782 15.488281-15.488282 15.488281h-23.078124v-30.980469h23.078124c8.5625 0 15.488282 6.941406 15.488282 15.492188zm0 0" fill="#2fc0f0"/><path d="m96.507812 280.085938c0 8.546874-6.941406 15.488281-15.492187 15.488281h-32.761719v-30.980469h32.761719c8.550781 0 15.492187 6.929688 15.492187 15.492188zm0 0" fill="#7ed8f6"/></svg>