<svg height="511pt" viewBox="0 -9 511.99972 511" width="511pt" xmlns="http://www.w3.org/2000/svg"><path d="m511 280.976562c0 57.453126-46.578125 104.019532-104.03125 104.019532-57.449219 0-104.027344-46.566406-104.027344-104.019532 0-57.449218 46.578125-104.027343 104.027344-104.027343 57.453125 0 104.03125 46.578125 104.03125 104.027343zm0 0" fill="#ffeb99"/><path d="m511 280.976562c0 57.453126-46.578125 104.019532-104.03125 104.019532v-208.046875c57.453125 0 104.03125 46.578125 104.03125 104.027343zm0 0" fill="#ffda44"/><path d="m512 409.476562c0 45.433594-35.976562 82.449219-80.996094 84.148438-1.070312.058594-2.140625.078125-3.210937.078125h-319.796875c-34.386719 0-62.289063-27.875-62.289063-62.289063 0-34.398437 27.890625-62.285156 62.289063-62.285156h35.097656v-.222656c0-68.929688 55.875-124.808594 124.796875-124.808594.441406 0 .882813 0 1.3125.011719 56.671875.585937 104.28125 38.933594 118.882813 91.070313 11.828124-6.335938 25.339843-9.933594 39.683593-9.933594 46.519531 0 84.230469 37.710937 84.230469 84.230468zm0 0" fill="#eef6ff"/><path d="m512 409.476562c0 45.433594-35.976562 82.449219-80.996094 84.148438-1.070312.058594-2.140625.078125-3.210937.078125h-158.589844v-249.59375c56.671875.585937 104.28125 38.933594 118.882813 91.070313 11.828124-6.335938 25.339843-9.933594 39.683593-9.933594 46.519531 0 84.230469 37.710937 84.230469 84.230468zm0 0" fill="#dae2f2"/><path d="m218.023438 375.765625c0 60.210937-48.808594 109.015625-109.011719 109.015625-.515625 0-1.03125 0-1.558594-.011719-58.683594-.824219-106.585937-48.695312-107.4414062-107.378906-.5781248-39.351563 19.7343752-73.992187 50.5312502-93.609375v-225.695312c0-31.804688 25.789062-57.585938 57.59375-57.585938h1.75c31.808593 0 57.589843 25.78125 57.589843 57.585938v225.695312c30.382813 19.355469 50.546876 53.300781 50.546876 91.984375zm0 0" fill="#fff1b6"/><path d="m218.023438 375.765625c0 60.210937-48.808594 109.015625-109.011719 109.015625v-484.28125h.875c31.808593 0 57.585937 25.78125 57.585937 57.585938v225.695312c30.386719 19.355469 50.550782 53.300781 50.550782 91.984375zm0 0" fill="#ffde55"/><path d="m124.816406 160.691406v31.175782h42.660156v31.609374h-42.660156v135.960938c0 8.722656-7.078125 15.800781-15.800781 15.800781-8.734375 0-15.804687-7.078125-15.804687-15.800781v-298.105469c0-8.722656 7.070312-15.804687 15.804687-15.804687 8.722656 0 15.800781 7.082031 15.800781 15.804687v67.753907h42.660156v31.605468zm0 0" fill="#ffb99d"/><path d="m124.816406 160.691406v31.175782h42.660156v31.609374h-42.660156v135.960938c0 8.722656-7.078125 15.800781-15.800781 15.800781v-329.710937c8.722656 0 15.800781 7.082031 15.800781 15.804687v67.753907h42.660156v31.605468zm0 0" fill="#ff946a"/><path d="m157.582031 375.765625c0 26.824219-21.746093 48.582031-48.570312 48.582031s-48.578125-21.757812-48.578125-48.582031c0-26.820313 21.753906-48.566406 48.578125-48.566406s48.570312 21.746093 48.570312 48.566406zm0 0" fill="#ff7037"/><path d="m157.582031 375.765625c0 26.824219-21.746093 48.582031-48.570312 48.582031v-97.148437c26.824219 0 48.570312 21.746093 48.570312 48.566406zm0 0" fill="#ff4c04"/></svg>