<svg height="512pt" viewBox="-22 0 512 512.00017" width="512pt" xmlns="http://www.w3.org/2000/svg"><path d="m130.257812 344.417969-45.460937-57.382813c-5.339844-6.746094-4.203125-16.542968 2.539063-21.882812 6.742187-5.34375 16.539062-4.207032 21.878906 2.535156l45.460937 57.382812c5.34375 6.746094 4.207031 16.539063-2.535156 21.882813-6.742187 5.339844-16.539063 4.207031-21.882813-2.535156zm0 0" fill="#ff4c04"/><path d="m154.679688 325.070312-45.460938-57.382812c-5.34375-6.742188-15.140625-7.878906-21.882812-2.535156l64.804687 81.800781c6.742187-5.34375 7.878906-15.136719 2.539063-21.882813zm0 0" fill="#ae3200"/><path d="m455.003906 315.742188c-3.5 10.921874-7.570312 21.296874-12.117187 31.152343-46.957031 101.796875-144.394531 147.984375-189.136719 164.453125-8.476562 3.117188-16.449219-5.515625-12.710938-13.664062 11.660157-25.441406 19.21875-50.851563 23.375-75.972656 1.742188-10.445313 2.886719-20.828126 3.488282-31.152344.984375-16.707032.570312-33.238282-1.039063-49.511719-8.980469-91.585937-55.484375-175.023437-100.738281-236.445313-8.210938-11.132812-16.375-21.546874-24.265625-31.152343-22.078125-26.875-42.035156-47.4375-54.789063-59.878907-5.078124-4.953124-1.566406-13.570312 5.535157-13.570312h314.515625c4.207031 0 8.019531 2.492188 9.730468 6.335938 25.234376 56.695312 40.261719 107.433593 47.363282 152.78125 9.667968 61.703124 4.664062 113.425781-9.210938 156.625zm0 0" fill="#7ed8f6"/><path d="m455.003906 315.742188c-3.5 10.921874-7.570312 21.296874-12.117187 31.152343-46.957031 101.796875-144.394531 147.984375-189.136719 164.453125-8.476562 3.117188-16.449219-5.515625-12.710938-13.664062 11.660157-25.441406 19.21875-50.851563 23.375-75.972656 1.742188-10.445313 2.886719-20.828126 3.488282-31.152344.984375-16.707032.570312-33.238282-1.039063-49.511719l197.351563-181.929687c9.667968 61.703124 4.664062 113.425781-9.210938 156.625zm0 0" fill="#2fc0f0"/><path d="m262.054688 89.023438c0 8.597656-6.976563 15.578124-15.574219 15.578124h-80.355469c-8.210938-11.132812-16.375-21.546874-24.265625-31.152343h104.621094c8.597656 0 15.574219 6.964843 15.574219 15.574219zm0 0" fill="#beebfa"/><path d="m455.003906 315.742188c-3.5 10.921874-7.570312 21.296874-12.117187 31.152343h-70.292969c-8.597656 0-15.574219-6.976562-15.574219-15.578125 0-8.597656 6.976563-15.574218 15.574219-15.574218zm0 0" fill="#beebfa"/><g fill="#7ed8f6"><path d="m154.113281 135.628906c0 8.597656-6.980469 15.574219-15.578125 15.574219h-106.726562c-8.609375 0-15.578125-6.976563-15.578125-15.574219s6.96875-15.578125 15.578125-15.578125h106.726562c8.597656 0 15.578125 6.980469 15.578125 15.578125zm0 0"/><path d="m223.707031 405.316406c0 8.597656-6.976562 15.574219-15.578125 15.574219h-69.574218c-8.597657 0-15.574219-6.976563-15.574219-15.574219 0-8.609375 6.976562-15.578125 15.574219-15.578125h69.574218c8.601563 0 15.578125 6.96875 15.578125 15.578125zm0 0"/><path d="m226.820312 303.28125c0 8.609375-6.964843 15.574219-15.574218 15.574219h-26.480469c-8.597656 0-15.574219-6.964844-15.574219-15.574219 0-8.597656 6.976563-15.578125 15.574219-15.578125h26.480469c8.609375 0 15.574218 6.980469 15.574218 15.578125zm0 0"/><path d="m57.644531 376.925781c0 8.597657-6.980469 15.574219-15.578125 15.574219h-26.488281c-8.601563 0-15.578125-6.976562-15.578125-15.574219 0-8.609375 6.976562-15.578125 15.578125-15.578125h26.488281c8.597656 0 15.578125 6.96875 15.578125 15.578125zm0 0"/><path d="m150.933594 464.257812c0 8.597657-6.976563 15.574219-15.574219 15.574219h-92.421875c-8.597656 0-15.574219-6.976562-15.574219-15.574219 0-8.609374 6.976563-15.578124 15.574219-15.578124h92.421875c8.597656 0 15.574219 6.96875 15.574219 15.578124zm0 0"/></g><path d="m325.203125 406.136719c0 8.597656-6.96875 15.574219-15.578125 15.574219h-45.210938c1.742188-10.445313 2.886719-20.828126 3.488282-31.152344h41.722656c8.609375 0 15.578125 6.980468 15.578125 15.578125zm0 0" fill="#beebfa"/><path d="m142.75 273.019531-18.003906 14.269531-12.210938 9.679688-30.210937 23.933594c-17.859375 14.136718-43.746094 11.089844-57.847657-6.707032-13.574218-17.132812-11.320312-41.714843 4.703126-56.136718-.011719-.03125-.03125-.054688-.050782-.074219-14.125-17.828125-11.121094-43.726563 6.695313-57.851563 17.832031-14.109374 43.730469-11.109374 57.851562 6.710938.019531.03125.03125.050781.050781.070312 17.757813-12.328124 42.199219-8.832031 55.734376 8.265626 14.121093 17.832031 11.109374 43.71875-6.710938 57.839843zm0 0" fill="#00dd80"/><path d="m142.75 273.019531-18.003906 14.269531-12.210938 9.679688-76.710937-96.835938c17.832031-14.109374 43.730469-11.109374 57.851562 6.710938.019531.03125.03125.050781.050781.070312 17.757813-12.328124 42.199219-8.832031 55.734376 8.265626 14.121093 17.832031 11.109374 43.71875-6.710938 57.839843zm0 0" fill="#00aa63"/><path d="m397.375 161.203125-4.492188-44.511719c-.746093-7.367187-6.566406-13.191406-13.933593-13.933594l-44.5-4.496093c-4.65625-.46875-9.269531 1.179687-12.578125 4.484375l-47.933594 47.9375c-6.082031 6.082031-6.082031 15.945312 0 22.027344l49 48.996093c6.082031 6.085938 15.945312 6.085938 22.027344 0l47.925781-47.925781c3.308594-3.308594 4.953125-7.925781 4.484375-12.578125zm0 0" fill="#ffb99d"/><path d="m372.609375 196.390625-6.734375-66.625c-66.355469-6.703125-20.464844-2.058594-66.617188-6.726563-8.558593-.867187-14.796874-8.503906-13.933593-17.066406.867187-8.558594 8.507812-14.796875 17.066406-13.929687 48.230469 4.875-1.171875-.121094 79.269531 8.003906 7.367188.742187 13.191406 6.566406 13.933594 13.933594l8.011719 79.277343c.863281 8.558594-5.375 16.195313-13.933594 17.0625-8.566406.867188-16.199219-5.375-17.0625-13.929687zm0 0" fill="#ff7c48"/><path d="m392.886719 173.78125-47.925781 47.925781c-6.078126 6.078125-15.941407 6.085938-22.027344 0l-24.496094-24.496093 89.964844-89.964844c2.472656 2.476562 4.113281 5.757812 4.480468 9.441406l4.492188 44.511719c.46875 4.65625-1.175781 9.269531-4.488281 12.582031zm0 0" fill="#ff7c48"/><path d="m389.671875 210.316406c-8.570313.875-16.199219-5.375-17.0625-13.921875l-.214844-2.121093-6.519531-64.5 25.238281-25.238282c2.472657 2.476563 4.101563 5.765625 4.476563 9.445313l8.011718 79.277343c.867188 8.5625-5.375 16.199219-13.929687 17.058594zm0 0" fill="#ff4c04"/><path d="m154.113281 135.628906c0 8.597656-6.980469 15.574219-15.578125 15.574219h-53.363281v-31.152344h53.363281c8.597656 0 15.578125 6.980469 15.578125 15.578125zm0 0" fill="#2fc0f0"/><path d="m223.707031 405.316406c0 8.597656-6.976562 15.574219-15.578125 15.574219h-34.785156v-31.152344h34.785156c8.601563 0 15.578125 6.96875 15.578125 15.578125zm0 0" fill="#2fc0f0"/><path d="m226.820312 303.28125c0 8.609375-6.964843 15.574219-15.574218 15.574219h-13.238282v-31.152344h13.238282c8.609375 0 15.574218 6.980469 15.574218 15.578125zm0 0" fill="#2fc0f0"/><path d="m57.644531 376.925781c0 8.597657-6.980469 15.574219-15.578125 15.574219h-13.25v-31.152344h13.25c8.597656 0 15.578125 6.96875 15.578125 15.578125zm0 0" fill="#2fc0f0"/><path d="m150.933594 464.257812c0 8.597657-6.976563 15.574219-15.574219 15.574219h-46.210937v-31.152343h46.210937c8.597656 0 15.574219 6.96875 15.574219 15.578124zm0 0" fill="#2fc0f0"/></svg>