<svg height="511pt" viewBox="0 0 511.99962 511" width="511pt" xmlns="http://www.w3.org/2000/svg"><path d="m235.128906 391.566406h-32.179687l37.007812-89.429687c3.324219-8.035157-.496093-17.246094-8.53125-20.570313-8.035156-3.324218-17.246093.492188-20.570312 8.527344l-46.011719 111.199219c-4.285156 10.359375 3.34375 21.765625 14.550781 21.765625h31.371094l-29.984375 66.566406c-3.570312 7.929688-.039062 17.253906 7.890625 20.824219 7.933594 3.574219 17.253906.03125 20.824219-7.890625l39.988281-88.78125c4.691406-10.410156-2.941406-22.210938-14.355469-22.210938zm0 0" fill="#ffcd00"/><g fill="#ffeb99"><path d="m123.472656 415.945312h-16.863281l16.625-40.175781c3.324219-8.035156-.496094-17.246093-8.53125-20.570312s-17.246094.492187-20.570313 8.53125l-25.632812 61.9375c-4.285156 10.359375 3.34375 21.765625 14.550781 21.765625h16.0625l-19.003906 42.1875c-3.570313 7.929687-.039063 17.253906 7.890625 20.824218 7.945312 3.578126 17.261719.027344 20.824219-7.890624l29.007812-64.398438c4.6875-10.410156-2.945312-22.210938-14.359375-22.210938zm0 0"/><path d="m331.472656 415.945312h-16.867187l16.625-40.175781c3.324219-8.035156-.492188-17.246093-8.527344-20.570312s-17.246094.492187-20.574219 8.53125l-25.628906 61.9375c-4.289062 10.359375 3.34375 21.765625 14.546875 21.765625h16.0625l-19 42.1875c-3.574219 7.929687-.039063 17.253906 7.890625 20.824218 7.945312 3.578126 17.257812.027344 20.824219-7.890624l29.003906-64.398438c4.6875-10.410156-2.941406-22.210938-14.355469-22.210938zm0 0"/><path d="m509.878906 235.570312c-53.984375 73.519532-160.347656 81.1875-224.367187 17.167969-87.546875-87.546875-34.796875-238.25 87.667969-252.167969 8.308593-.9375 14.496093 7.417969 11.371093 15.167969-16.644531 41.113281-14.167969 89.078125 8.8125 129.140625 22.46875 39.203125 62.332031 67.148438 109.066407 73.335938 8.242187 1.082031 12.375 10.644531 7.449218 17.355468zm0 0"/></g><path d="m509.878906 235.570312c-53.984375 73.519532-160.347656 81.1875-224.367187 17.167969l107.851562-107.859375c22.46875 39.203125 62.332031 67.148438 109.066407 73.335938 8.242187 1.082031 12.375 10.644531 7.449218 17.355468zm0 0" fill="#ffda44"/><path d="m414.523438 268.429688c0 39.0625-31.664063 70.722656-70.726563 70.722656h-273.058594c-39.0625 0-70.738281-31.660156-70.738281-70.722656 0-52.566407 55.335938-86.519532 102.035156-63.449219 8.855469-54.855469 56.257813-96.796875 113.542969-97.085938h.597656c55.507813 0 101.875 39.128907 113.054688 91.296875 44.40625-9.210937 85.292969 24.671875 85.292969 69.238282zm0 0" fill="#dae2f2"/><path d="m414.523438 268.429688c0 39.0625-31.664063 70.722656-70.726563 70.722656h-128.21875v-231.257813h.597656c55.507813 0 101.875 39.128907 113.054688 91.296875 44.40625-9.210937 85.292969 24.671875 85.292969 69.238282zm0 0" fill="#b9ceed"/></svg>