<svg height="511pt" viewBox="0 0 511.99996 511" width="511pt" xmlns="http://www.w3.org/2000/svg"><path d="m511.480469 272.738281c-8.914063 139.84375-126.449219 239.34375-255.304688 239.511719-35.386719.054688-71.621093-7.390625-106.703125-23.546875-37.695312-17.3125-72.347656-44.382813-98.800781-80.082031-124.484375-167.296875-5.765625-408.039063 205.503906-408.121094 75.226563-.03125 150.65625 32.578125 202.019531 98.703125 38.488282 49.53125 57.246094 111.570313 53.285157 173.535156zm0 0" fill="#ffeb99"/><path d="m511.480469 272.738281c-8.914063 139.84375-126.449219 239.34375-255.304688 239.511719v-511.75c75.226563-.03125 150.65625 32.578125 202.019531 98.703125 38.488282 49.53125 57.246094 111.570313 53.285157 173.535156zm0 0" fill="#ffde55"/><path d="m511.472656 272.746094c-40.980468-.496094-77.949218-27.519532-90.050781-67.984375-12.1875-40.75 4.15625-82.875 36.773437-105.558594 38.488282 49.535156 57.242188 111.5625 53.277344 173.542969zm0 0" fill="#eebf00"/><path d="m149.464844 488.707031c-37.691406-17.308593-72.34375-44.378906-98.792969-80.085937 22.808594-27.164063 62.921875-29.949219 88.910156-8.484375 24.988281 20.640625 32.582031 59.605469 9.882813 88.570312zm0 0" fill="#ffcd00"/><path d="m389.652344 341.640625c0 24.933594-20.214844 45.144531-45.148438 45.144531s-45.144531-20.210937-45.144531-45.144531 20.210937-45.144531 45.144531-45.144531 45.148438 20.210937 45.148438 45.144531zm0 0" fill="#eebf00"/><path d="m299.359375 140.035156c0 23.84375-19.335937 43.175782-43.1875 43.175782-23.855469 0-43.1875-19.332032-43.1875-43.175782 0-23.851562 19.332031-43.1875 43.1875-43.1875 23.851563 0 43.1875 19.335938 43.1875 43.1875zm0 0" fill="#ffcd00"/><path d="m299.359375 140.035156c0 23.84375-19.335937 43.175782-43.1875 43.175782v-86.363282c23.851563 0 43.1875 19.335938 43.1875 43.1875zm0 0" fill="#eebf00"/><path d="m180.230469 268.65625c0 22.453125-18.199219 40.652344-40.648438 40.652344-22.453125 0-40.652343-18.199219-40.652343-40.652344 0-22.449219 18.199218-40.648438 40.652343-40.648438 22.449219 0 40.648438 18.199219 40.648438 40.648438zm0 0" fill="#ffcd00"/></svg>