<svg height="512pt" viewBox="0 -1 512.00046 512" width="512pt" xmlns="http://www.w3.org/2000/svg"><path d="m512 130.121094c0 71.871094-58.261719 130.121094-130.121094 130.121094-71.871094 0-130.132812-58.25-130.132812-130.121094 0-71.859375 58.261718-130.121094 130.132812-130.121094 71.859375 0 130.121094 58.261719 130.121094 130.121094zm0 0" fill="#ffeb99"/><path d="m512 130.121094c0 71.871094-58.261719 130.121094-130.121094 130.121094v-260.242188c71.859375 0 130.121094 58.261719 130.121094 130.121094zm0 0" fill="#ffde55"/><path d="m177.230469 507.476562c-7.691407-3.976562-10.707031-13.4375-6.734375-21.128906l35.953125-69.585937h-32.300781c-11.609376 0-19.191407-12.214844-14.0625-22.617188l57.109374-115.8125c3.832032-7.769531 13.234376-10.957031 21-7.128906 7.769532 3.828125 10.960938 13.230469 7.128907 20.996094l-45.957031 93.199219h32.832031c11.726562 0 19.320312 12.449218 13.929687 22.878906l-47.769531 92.464844c-3.972656 7.691406-13.433594 10.707031-21.128906 6.734374zm0 0" fill="#ffcd00"/><g fill="#5ecef4"><path d="m358.75 406.664062c-7.695312-3.980468-17.15625-.972656-21.136719 6.714844l-32.503906 62.792969c-3.984375 7.6875-.976563 17.152344 6.714844 21.132813 7.695312 3.984374 17.15625.96875 21.132812-6.714844l32.507813-62.789063c3.980468-7.691406.976562-17.15625-6.714844-21.136719zm0 0"/><path d="m385.335938 355.308594c-7.6875-3.980469-17.152344-.976563-21.132813 6.71875l-6.003906 11.589844c-3.980469 7.691406-.976563 17.15625 6.714843 21.136718 7.6875 3.980469 17.152344.976563 21.136719-6.714844l6.003907-11.59375c3.980468-7.691406.972656-17.152343-6.71875-21.136718zm0 0"/><path d="m319.523438 355.308594c-7.691407-3.980469-17.152344-.972656-21.132813 6.714844l-32.507813 62.792968c-3.984374 7.6875-.976562 17.152344 6.714844 21.132813 7.699219 3.984375 17.15625.96875 21.136719-6.714844l32.503906-62.789063c3.984375-7.691406.976563-17.15625-6.714843-21.136718zm0 0"/><path d="m266.429688 457.859375c-7.6875-3.980469-17.152344-.972656-21.132813 6.71875l-6.003906 11.59375c-3.980469 7.691406-.972657 17.152344 6.71875 21.132813 7.691406 3.984374 17.152343.972656 21.132812-6.714844l6.003907-11.59375c3.980468-7.691406.972656-17.152344-6.71875-21.136719zm0 0"/></g><path d="m115.34375 406.664062c-7.691406-3.980468-17.152344-.972656-21.132812 6.714844l-32.507813 62.792969c-3.984375 7.6875-.976563 17.152344 6.714844 21.132813 7.699219 3.984374 17.15625.96875 21.136719-6.714844l32.503906-62.789063c3.984375-7.691406.976562-17.15625-6.714844-21.136719zm0 0" fill="#7ed8f6"/><path d="m141.929688 355.308594c-7.6875-3.980469-17.152344-.976563-21.132813 6.71875l-6.003906 11.589844c-3.980469 7.691406-.972657 17.15625 6.71875 21.136718 7.691406 3.980469 17.152343.972656 21.132812-6.714844l6.003907-11.59375c3.980468-7.691406.972656-17.15625-6.71875-21.136718zm0 0" fill="#7ed8f6"/><path d="m81.988281 355.308594c-7.691406-3.980469-17.152343-.972656-21.136719 6.714844l-32.503906 62.792968c-3.984375 7.6875-.976562 17.152344 6.714844 21.132813 7.695312 3.984375 17.15625.96875 21.132812-6.714844l32.507813-62.789063c3.984375-7.691406.976563-17.15625-6.714844-21.136718zm0 0" fill="#7ed8f6"/><path d="m28.894531 457.859375c-7.691406-3.980469-17.152343-.972656-21.132812 6.71875l-6.003907 11.59375c-3.980468 7.691406-.972656 17.152344 6.71875 21.132813 7.691407 3.984374 17.152344.972656 21.132813-6.714844l6.003906-11.59375c3.980469-7.691406.972657-17.152344-6.71875-21.136719zm0 0" fill="#7ed8f6"/><path d="m411.09375 258.640625c0 38.148437-30.917969 69.070313-69.066406 69.070313h-266.660156c-38.148438 0-69.078126-30.921876-69.078126-69.070313s30.929688-69.078125 69.078126-69.078125c10.976562 0 21.34375 2.5625 30.566406 7.117188 8.644531-53.570313 54.9375-94.527344 110.878906-94.808594h.585938c54.207031 0 99.484374 38.210937 110.402343 89.15625 4.59375-.953125 9.355469-1.464844 14.226563-1.464844 38.148437 0 69.066406 30.929688 69.066406 69.078125zm0 0" fill="#eef6ff"/><path d="m411.09375 258.640625c0 38.148437-30.917969 69.070313-69.066406 69.070313h-125.214844v-225.839844h.585938c54.207031 0 99.484374 38.210937 110.402343 89.15625 4.59375-.953125 9.355469-1.464844 14.226563-1.464844 38.148437 0 69.066406 30.929688 69.066406 69.078125zm0 0" fill="#dae2f2"/></svg>