<svg height="512pt" viewBox="-107 0 511 512" width="512pt" xmlns="http://www.w3.org/2000/svg"><path d="m298.160156 29.585938v452.828124c0 16.335938-13.238281 29.582032-29.582031 29.582032h-238.496094c-16.34375 0-29.582031-13.246094-29.582031-29.582032v-452.828124c0-16.332032 13.238281-29.58203175 29.582031-29.58203175h238.496094c16.34375 0 29.582031 13.24609375 29.582031 29.58203175zm0 0" fill="#2fc0f0"/><path d="m298.160156 29.582031v452.835938c0 16.335937-13.238281 29.582031-29.582031 29.582031h-119.246094v-512h119.246094c16.34375 0 29.582031 13.246094 29.582031 29.582031zm0 0" fill="#0d91bd"/><path d="m.5 86.984375h297.660156v338.03125h-297.660156zm0 0" fill="#beebfa"/><path d="m149.332031 86.980469h148.828125v338.039062h-148.828125zm0 0" fill="#7ed8f6"/><path d="m119.597656 58.105469h59.46875c8.492188 0 15.378906-6.886719 15.378906-15.378907 0-8.492187-6.886718-15.378906-15.378906-15.378906h-59.46875c-8.496094 0-15.382812 6.886719-15.382812 15.378906 0 8.492188 6.886718 15.378907 15.382812 15.378907zm0 0" fill="#beebfa"/><path d="m179.066406 453.894531h-59.46875c-8.496094 0-15.382812 6.886719-15.382812 15.378907 0 8.492187 6.886718 15.378906 15.382812 15.378906h59.46875c8.492188 0 15.378906-6.886719 15.378906-15.378906 0-8.492188-6.886718-15.378907-15.378906-15.378907zm0 0" fill="#beebfa"/><path d="m194.445312 42.726562c0 8.488282-6.890624 15.378907-15.378906 15.378907h-29.734375v-30.757813h29.734375c8.488282 0 15.378906 6.890625 15.378906 15.378906zm0 0" fill="#7ed8f6"/><path d="m194.445312 469.273438c0 8.488281-6.890624 15.378906-15.378906 15.378906h-29.734375v-30.757813h29.734375c8.488282 0 15.378906 6.890625 15.378906 15.378907zm0 0" fill="#7ed8f6"/><g fill="#eef6ff"><path d="m92.421875 329.566406c-8.492187 0-15.378906 6.886719-15.378906 15.382813v40.585937c0 8.496094 6.886719 15.382813 15.378906 15.382813s15.378906-6.886719 15.378906-15.382813v-40.585937c0-8.496094-6.886719-15.382813-15.378906-15.382813zm0 0"/><path d="m92.421875 265.597656c-8.492187 0-15.378906 6.886719-15.378906 15.378906v19.457032c0 8.492187 6.886719 15.378906 15.378906 15.378906s15.378906-6.886719 15.378906-15.378906v-19.457032c0-8.492187-6.886719-15.378906-15.378906-15.378906zm0 0"/><path d="m164.710938 367.25v18.28125c0 8.5-6.890626 15.382812-15.378907 15.382812-8.492187 0-15.382812-6.882812-15.382812-15.382812v-18.28125c0-8.488281 6.890625-15.378906 15.382812-15.378906 8.488281 0 15.378907 6.890625 15.378907 15.378906zm0 0"/><path d="m164.710938 280.976562v43.351563c0 8.492187-6.890626 15.382813-15.378907 15.382813-8.492187 0-15.382812-6.890626-15.382812-15.382813v-43.351563c0-8.488281 6.890625-15.378906 15.382812-15.378906 8.488281 0 15.378907 6.890625 15.378907 15.378906zm0 0"/></g><path d="m164.710938 280.976562v43.351563c0 8.492187-6.890626 15.382813-15.378907 15.382813v-74.113282c8.488281 0 15.378907 6.890625 15.378907 15.378906zm0 0" fill="#dae2f2"/><path d="m164.710938 367.25v18.28125c0 8.5-6.890626 15.382812-15.378907 15.382812v-49.042968c8.488281 0 15.378907 6.890625 15.378907 15.378906zm0 0" fill="#dae2f2"/><path d="m206.242188 329.566406c-8.496094 0-15.382813 6.886719-15.382813 15.382813v40.585937c0 8.496094 6.886719 15.382813 15.382813 15.382813 8.492187 0 15.378906-6.886719 15.378906-15.382813v-40.585937c0-8.496094-6.886719-15.382813-15.378906-15.382813zm0 0" fill="#dae2f2"/><path d="m206.242188 265.597656c-8.496094 0-15.382813 6.886719-15.382813 15.378906v19.457032c0 8.492187 6.886719 15.378906 15.382813 15.378906 8.492187 0 15.378906-6.886719 15.378906-15.378906v-19.457032c0-8.492187-6.886719-15.378906-15.378906-15.378906zm0 0" fill="#dae2f2"/><path d="m265.554688 200.703125c0 22.640625-17.933594 41.097656-40.367188 41.9375-.542969.039063-1.078125.039063-1.609375.039063h-159.414063c-17.144531 0-31.058593-13.890626-31.058593-31.046876 0-17.144531 13.894531-31.058593 31.058593-31.058593h17.492188v-.101563c0-36.863281 31.765625-65.242187 67.675781-61.972656 26.105469 2.265625 47.597657 20.660156 54.457031 45.167969 5.882813-3.160157 12.632813-4.953125 19.777344-4.953125 23.195313 0 41.988282 18.792968 41.988282 41.988281zm0 0" fill="#eef6ff"/><path d="m265.554688 200.703125c0 22.640625-17.933594 41.097656-40.367188 41.9375-.542969.039063-1.078125.039063-1.609375.039063h-74.246094v-124.179688c26.105469 2.265625 47.597657 20.660156 54.457031 45.167969 5.882813-3.160157 12.632813-4.953125 19.777344-4.953125 23.195313 0 41.988282 18.792968 41.988282 41.988281zm0 0" fill="#dae2f2"/></svg>