<svg height="512pt" viewBox="-3 0 512 512" width="512pt" xmlns="http://www.w3.org/2000/svg"><path d="m297.660156 29.585938v452.828124c0 16.335938-13.238281 29.582032-29.582031 29.582032h-238.496094c-16.34375 0-29.582031-13.246094-29.582031-29.582032v-452.828124c0-16.332032 13.238281-29.58203175 29.582031-29.58203175h238.496094c16.34375 0 29.582031 13.24609375 29.582031 29.58203175zm0 0" fill="#2fc0f0"/><path d="m297.660156 29.582031v452.835938c0 16.335937-13.238281 29.582031-29.582031 29.582031h-119.246094v-512h119.246094c16.34375 0 29.582031 13.246094 29.582031 29.582031zm0 0" fill="#0d91bd"/><path d="m0 86.984375h297.660156v338.03125h-297.660156zm0 0" fill="#beebfa"/><path d="m148.832031 86.980469h148.828125v338.039062h-148.828125zm0 0" fill="#7ed8f6"/><path d="m119.097656 58.105469h59.46875c8.492188 0 15.378906-6.886719 15.378906-15.378907 0-8.492187-6.886718-15.378906-15.378906-15.378906h-59.46875c-8.496094 0-15.382812 6.886719-15.382812 15.378906 0 8.492188 6.886718 15.378907 15.382812 15.378907zm0 0" fill="#beebfa"/><path d="m178.566406 453.894531h-59.46875c-8.496094 0-15.382812 6.886719-15.382812 15.378907 0 8.492187 6.886718 15.378906 15.382812 15.378906h59.46875c8.492188 0 15.378906-6.886719 15.378906-15.378906 0-8.492188-6.886718-15.378907-15.378906-15.378907zm0 0" fill="#beebfa"/><path d="m193.945312 42.726562c0 8.488282-6.890624 15.378907-15.378906 15.378907h-29.734375v-30.757813h29.734375c8.488282 0 15.378906 6.890625 15.378906 15.378906zm0 0" fill="#7ed8f6"/><path d="m193.945312 469.273438c0 8.488281-6.890624 15.378906-15.378906 15.378906h-29.734375v-30.757813h29.734375c8.488282 0 15.378906 6.890625 15.378906 15.378907zm0 0" fill="#7ed8f6"/><path d="m240.785156 251.457031c-.480468 10.980469-1.925781 21.226563-4.183594 30.761719-13.613281 58.015625-56.382812 90.027344-87.777343 106.183594-5.519531 2.839844-10.675781 5.191406-15.269531 7.105468-7.21875 3.015626-14.476563-4.183593-11.554688-11.429687 27.375-68.035156 1.496094-134.988281-29.878906-183.785156-7.257813-11.300781-14.828125-21.625-22.085938-30.761719-8.796875-11.074219-17.164062-20.402344-24.023437-27.621094-6.050781-6.367187-1.527344-16.890625 7.257812-16.890625h144.082031c8.664063 0 16.488282 5.191407 19.820313 13.1875 18.519531 44.53125 25 81.925781 23.613281 113.25zm0 0" fill="#eef6ff"/><path d="m240.785156 251.457031c-.480468 10.980469-1.925781 21.226563-4.183594 30.761719-13.613281 58.015625-56.382812 90.027344-87.777343 106.183594v-263.382813h48.527343c8.664063 0 16.488282 5.191407 19.820313 13.1875 18.519531 44.53125 25 81.925781 23.613281 113.25zm0 0" fill="#dae2f2"/><path d="m132.460938 184.914062c0 8.488282-6.878907 15.378907-15.378907 15.378907h-24.957031c-7.261719-11.300781-14.828125-21.625-22.085938-30.761719h47.042969c8.5 0 15.378907 6.878906 15.378907 15.382812zm0 0" fill="#dae2f2"/><path d="m240.785156 251.457031c-.480468 10.980469-1.925781 21.226563-4.183594 30.761719h-32.121093c-8.492188 0-15.382813-6.890625-15.382813-15.378906 0-8.503906 6.890625-15.382813 15.382813-15.382813zm0 0" fill="#b9ceed"/><path d="m504.324219 342.128906-119.367188-206.746094c-2.746093-4.761718-7.824219-7.691406-13.316406-7.691406-5.496094 0-10.574219 2.929688-13.320313 7.691406l-119.367187 206.746094c-5.917969 10.25 1.503906 23.070313 13.320313 23.070313h238.730468c11.835938 0 19.226563-12.839844 13.320313-23.070313zm0 0" fill="#ff946a"/><path d="m491.007812 365.199219h-119.371093v-237.511719c5.496093 0 10.570312 2.933594 13.316406 7.691406l119.375 206.75c5.914063 10.246094-1.507813 23.070313-13.320313 23.070313zm0 0" fill="#ff7037"/><path d="m464.367188 334.441406h-185.453126l92.722657-160.613281zm0 0" fill="#eef6ff"/><path d="m371.636719 282.214844c-8.492188 0-15.378907-6.886719-15.378907-15.382813v-39.648437c0-8.496094 6.886719-15.382813 15.378907-15.382813 8.496093 0 15.382812 6.886719 15.382812 15.382813v39.648437c0 8.496094-6.886719 15.382813-15.382812 15.382813zm0 0" fill="#ff946a"/><path d="m388.394531 309.277344c0 9.253906-7.503906 16.753906-16.757812 16.753906-9.25 0-16.753907-7.5-16.753907-16.753906s7.503907-16.753906 16.753907-16.753906c9.253906 0 16.757812 7.5 16.757812 16.753906zm0 0" fill="#ff946a"/><path d="m464.367188 334.441406h-92.730469v-160.613281zm0 0" fill="#dae2f2"/><g fill="#ff6426"><path d="m387.015625 227.175781v39.652344c0 8.5-6.878906 15.378906-15.378906 15.378906v-70.410156c8.5 0 15.378906 6.890625 15.378906 15.378906zm0 0"/><path d="m388.390625 309.277344c0 9.25-7.496094 16.753906-16.753906 16.753906v-33.507812c9.257812 0 16.753906 7.496093 16.753906 16.753906zm0 0"/></g></svg>