<svg height="512pt" viewBox="-107 0 511 512" width="512pt" xmlns="http://www.w3.org/2000/svg"><path d="m298.160156 29.585938v452.828124c0 16.335938-13.238281 29.582032-29.582031 29.582032h-238.496094c-16.34375 0-29.582031-13.246094-29.582031-29.582032v-452.828124c0-16.332032 13.238281-29.58203175 29.582031-29.58203175h238.496094c16.34375 0 29.582031 13.24609375 29.582031 29.58203175zm0 0" fill="#2fc0f0"/><path d="m298.160156 29.582031v452.835938c0 16.335937-13.238281 29.582031-29.582031 29.582031h-119.246094v-512h119.246094c16.34375 0 29.582031 13.246094 29.582031 29.582031zm0 0" fill="#0d91bd"/><path d="m.5 86.984375h297.660156v338.03125h-297.660156zm0 0" fill="#beebfa"/><path d="m149.332031 86.980469h148.828125v338.039062h-148.828125zm0 0" fill="#7ed8f6"/><path d="m119.597656 58.105469h59.46875c8.492188 0 15.378906-6.886719 15.378906-15.378907 0-8.492187-6.886718-15.378906-15.378906-15.378906h-59.46875c-8.496094 0-15.382812 6.886719-15.382812 15.378906 0 8.492188 6.886718 15.378907 15.382812 15.378907zm0 0" fill="#beebfa"/><path d="m179.066406 453.894531h-59.46875c-8.496094 0-15.382812 6.886719-15.382812 15.378907 0 8.492187 6.886718 15.378906 15.382812 15.378906h59.46875c8.492188 0 15.378906-6.886719 15.378906-15.378906 0-8.492188-6.886718-15.378907-15.378906-15.378907zm0 0" fill="#beebfa"/><path d="m194.445312 42.726562c0 8.488282-6.890624 15.378907-15.378906 15.378907h-29.734375v-30.757813h29.734375c8.488282 0 15.378906 6.890625 15.378906 15.378906zm0 0" fill="#7ed8f6"/><path d="m194.445312 469.273438c0 8.488281-6.890624 15.378906-15.378906 15.378906h-29.734375v-30.757813h29.734375c8.488282 0 15.378906 6.890625 15.378906 15.378907zm0 0" fill="#7ed8f6"/><path d="m185.914062 308.96875-33.488281 74.347656c-.777343 1.722656-1.832031 3.242188-3.09375 4.503906-4.378906 4.4375-11.21875 5.914063-17.246093 3.207032-7.742188-3.496094-11.199219-12.601563-7.710938-20.339844l23.714844-52.652344h-22.875c-10.949219 0-18.394532-11.148437-14.210938-21.265625l38.328125-92.621093.203125-.492188c3.25-7.855469 12.242188-11.585938 20.085938-8.335938 7.855468 3.25 11.589844 12.242188 8.335937 20.097657l-28.625 69.179687-1.109375 2.675782h23.667969c11.164063 0 18.585937 11.546874 14.023437 21.695312zm0 0" fill="#ffeb99"/><path d="m177.957031 215.417969-28.625 69.179687v-80.449218l.203125-.492188c3.25-7.855469 12.242188-11.585938 20.085938-8.335938 7.855468 3.25 11.589844 12.242188 8.335937 20.097657zm0 0" fill="#ffde55"/><path d="m185.914062 308.96875-33.488281 74.347656c-.777343 1.722656-1.832031 3.242188-3.09375 4.503906v-100.546874h22.558594c11.164063 0 18.585937 11.546874 14.023437 21.695312zm0 0" fill="#ffde55"/><path d="m272.894531 198.046875c0 24.074219-19.058593 43.699219-42.917969 44.59375-.574218.039063-1.140624.039063-1.703124.039063h-169.492188c-18.230469 0-33.015625-14.773438-33.015625-33.015626 0-18.21875 14.777344-33.007812 33.015625-33.007812h18.601562v-.121094c0-39.269531 33.867188-69.34375 71.949219-65.878906 27.753907 2.410156 50.601563 21.964844 57.902344 48.015625 6.253906-3.351563 13.421875-5.257813 21.027344-5.257813 24.652343 0 44.632812 19.972657 44.632812 44.632813zm0 0" fill="#eef6ff"/><path d="m272.894531 198.046875c0 24.074219-19.058593 43.699219-42.917969 44.59375-.574218.039063-1.140624.039063-1.703124.039063h-78.941407v-132.023438c27.753907 2.410156 50.601563 21.964844 57.902344 48.015625 6.253906-3.351563 13.421875-5.257813 21.027344-5.257813 24.652343 0 44.632812 19.972657 44.632812 44.632813zm0 0" fill="#dae2f2"/></svg>