<svg height="512pt" viewBox="0 -3 512.00052 512" width="512pt" xmlns="http://www.w3.org/2000/svg"><path d="m367.789062 187.464844c0 61.746094-50.054687 111.789062-111.789062 111.789062s-111.789062-50.042968-111.789062-111.789062c0-61.734375 50.054687-111.785156 111.789062-111.785156s111.789062 50.050781 111.789062 111.785156zm0 0" fill="#ffeb99"/><path d="m367.789062 187.464844c0 61.746094-50.054687 111.789062-111.789062 111.789062v-223.574218c61.734375 0 111.789062 50.050781 111.789062 111.785156zm0 0" fill="#ffde55"/><path d="m427.8125 171.808594h-21.757812c-8.648438 0-15.660157 7.011718-15.660157 15.660156s7.011719 15.65625 15.660157 15.65625h21.757812c8.644531 0 15.65625-7.007812 15.65625-15.65625s-7.011719-15.660156-15.65625-15.660156zm0 0" fill="#ffde55"/><path d="m105.949219 171.808594h-21.761719c-8.644531 0-15.65625 7.011718-15.65625 15.660156s7.011719 15.65625 15.65625 15.65625h21.761719c8.644531 0 15.65625-7.007812 15.65625-15.65625s-7.011719-15.660156-15.65625-15.660156zm0 0" fill="#ffeb99"/><path d="m388.558594 54.910156c-6.113282-6.117187-16.027344-6.117187-22.144532 0l-15.382812 15.382813c-6.113281 6.117187-6.113281 16.03125 0 22.144531s16.027344 6.117188 22.144531 0l15.382813-15.386719c6.117187-6.113281 6.117187-16.027343 0-22.140625zm0 0" fill="#ffde55"/><path d="m256 0c-8.648438 0-15.65625 7.011719-15.65625 15.660156v21.753906c0 8.648438 7.007812 15.660157 15.65625 15.660157s15.660156-7.011719 15.660156-15.660157v-21.753906c0-8.648437-7.011718-15.660156-15.660156-15.660156zm0 0" fill="#ffeb99"/><path d="m145.582031 54.910156c-6.113281-6.117187-16.027343-6.117187-22.140625 0-6.117187 6.113282-6.117187 16.027344 0 22.140625l15.382813 15.386719c3.058593 3.058594 7.066406 4.585938 11.070312 4.585938 4.007813 0 8.015625-1.527344 11.074219-4.585938 6.113281-6.113281 6.113281-16.027344 0-22.144531zm0 0" fill="#ffeb99"/><path d="m213.234375 127.589844c-8.648437 0-15.65625 7.007812-15.65625 15.65625v10.761718c0 8.648438 7.007813 15.660157 15.65625 15.660157s15.660156-7.011719 15.660156-15.660157v-10.761718c0-8.648438-7.011719-15.65625-15.660156-15.65625zm0 0" fill="#ffcd00"/><path d="m298.765625 127.589844c-8.648437 0-15.660156 7.007812-15.660156 15.65625v10.761718c0 8.648438 7.011719 15.660157 15.660156 15.660157 8.644531 0 15.65625-7.011719 15.65625-15.660157v-10.761718c0-8.648438-7.007813-15.65625-15.65625-15.65625zm0 0" fill="#eebf00"/><path d="m293.320312 198.546875c0 20.28125-16.503906 36.796875-36.796874 36.796875h-1.046876c-20.292968 0-36.792968-16.515625-36.792968-36.796875 0-8.652344 7.011718-15.65625 15.65625-15.65625 8.644531 0 15.65625 7.003906 15.65625 15.65625 0 3.015625 2.464844 5.480469 5.480468 5.480469h1.046876c3.015624 0 5.480468-2.464844 5.480468-5.480469 0-8.652344 7.011719-15.65625 15.65625-15.65625 8.644532 0 15.660156 7.003906 15.660156 15.65625zm0 0" fill="#ffcd00"/><path d="m293.320312 198.546875c0 20.28125-16.503906 36.796875-36.796874 36.796875h-.523438v-31.316406h.523438c3.015624 0 5.480468-2.464844 5.480468-5.480469 0-8.652344 7.011719-15.65625 15.65625-15.65625 8.644532 0 15.660156 7.003906 15.660156 15.65625zm0 0" fill="#eebf00"/><path d="m511.96875 488.5625c-8.550781-133.929688-119.890625-239.914062-255.96875-239.914062s-247.417969 105.984374-255.96875 239.914062c-.574219 8.988281 6.628906 16.585938 15.636719 16.585938h130.496093c7.808594 0 14.40625-5.761719 15.5-13.496094 6.546876-46.234375 46.285157-81.789063 94.335938-81.789063s87.789062 35.554688 94.335938 81.789063c1.09375 7.734375 7.691406 13.496094 15.5 13.496094h130.496093c9.007813 0 16.210938-7.597657 15.636719-16.585938zm0 0" fill="#ff7c48"/><path d="m511.96875 488.5625c-8.550781-133.929688-119.890625-239.914062-255.96875-239.914062v161.214843c48.050781 0 87.789062 35.554688 94.335938 81.789063 1.09375 7.734375 7.691406 13.496094 15.5 13.496094h130.496093c9.007813 0 16.210938-7.597657 15.636719-16.585938zm0 0" fill="#ff4c04"/><path d="m256 300.167969c-113.203125 0-204.976562 91.773437-204.976562 204.976562h95.136718c7.8125 0 14.40625-5.757812 15.5-13.492187 6.550782-46.238282 46.289063-81.792969 94.339844-81.792969s87.785156 35.554687 94.339844 81.792969c1.09375 7.734375 7.691406 13.492187 15.5 13.492187h95.136718c0-113.203125-91.773437-204.976562-204.976562-204.976562zm0 0" fill="#ffe477"/><path d="m256 300.167969v109.691406c48.050781 0 87.789062 35.554687 94.335938 81.796875 1.09375 7.734375 7.691406 13.488281 15.5 13.488281h95.140624c0-113.199219-91.777343-204.976562-204.976562-204.976562zm0 0" fill="#ffcd00"/><path d="m256 351.789062c-84.691406 0-153.355469 68.664063-153.355469 153.355469h43.515625c7.8125 0 14.40625-5.757812 15.5-13.492187 6.550782-46.238282 46.289063-81.792969 94.339844-81.792969s87.785156 35.554687 94.339844 81.792969c1.09375 7.734375 7.691406 13.492187 15.5 13.492187h43.515625c0-84.691406-68.660157-153.355469-153.355469-153.355469zm0 0" fill="#00dd80"/><path d="m256 351.789062v58.070313c48.050781 0 87.789062 35.554687 94.335938 81.796875 1.09375 7.734375 7.691406 13.488281 15.5 13.488281h43.519531c0-84.691406-68.664063-153.355469-153.355469-153.355469zm0 0" fill="#00aa63"/><path d="m271.660156 15.660156v21.753906c0 8.65625-7.015625 15.660157-15.660156 15.660157v-53.07031275c8.644531 0 15.660156 7.00390575 15.660156 15.65624975zm0 0" fill="#ffde55"/></svg>