<svg height="512pt" viewBox="-107 0 511 512" width="512pt" xmlns="http://www.w3.org/2000/svg"><path d="m298.160156 29.585938v452.828124c0 16.335938-13.238281 29.582032-29.582031 29.582032h-238.496094c-16.34375 0-29.582031-13.246094-29.582031-29.582032v-452.828124c0-16.332032 13.238281-29.58203175 29.582031-29.58203175h238.496094c16.34375 0 29.582031 13.24609375 29.582031 29.58203175zm0 0" fill="#2fc0f0"/><path d="m298.160156 29.582031v452.835938c0 16.335937-13.238281 29.582031-29.582031 29.582031h-119.246094v-512h119.246094c16.34375 0 29.582031 13.246094 29.582031 29.582031zm0 0" fill="#0d91bd"/><path d="m.5 86.984375h297.660156v338.03125h-297.660156zm0 0" fill="#beebfa"/><path d="m149.332031 86.980469h148.828125v338.039062h-148.828125zm0 0" fill="#7ed8f6"/><path d="m119.597656 58.105469h59.46875c8.492188 0 15.378906-6.886719 15.378906-15.378907 0-8.492187-6.886718-15.378906-15.378906-15.378906h-59.46875c-8.496094 0-15.382812 6.886719-15.382812 15.378906 0 8.492188 6.886718 15.378907 15.382812 15.378907zm0 0" fill="#beebfa"/><path d="m179.066406 453.894531h-59.46875c-8.496094 0-15.382812 6.886719-15.382812 15.378907 0 8.492187 6.886718 15.378906 15.382812 15.378906h59.46875c8.492188 0 15.378906-6.886719 15.378906-15.378906 0-8.492188-6.886718-15.378907-15.378906-15.378907zm0 0" fill="#beebfa"/><path d="m194.445312 42.726562c0 8.488282-6.890624 15.378907-15.378906 15.378907h-29.734375v-30.757813h29.734375c8.488282 0 15.378906 6.890625 15.378906 15.378906zm0 0" fill="#7ed8f6"/><path d="m194.445312 469.273438c0 8.488281-6.890624 15.378906-15.378906 15.378906h-29.734375v-30.757813h29.734375c8.488282 0 15.378906 6.890625 15.378906 15.378907zm0 0" fill="#7ed8f6"/><path d="m214.808594 337.042969c0 8.492187-6.890625 15.382812-15.378906 15.382812h-34.945313v25.847657c0 8.417968-6.765625 15.257812-15.152344 15.371093-.074219.007813-.15625.007813-.226562.007813-8.488281 0-15.378907-6.890625-15.378907-15.378906v-82.457032c0-8.492187 6.890626-15.382812 15.378907-15.382812h50.324219c8.488281 0 15.378906 6.890625 15.378906 15.382812 0 8.5-6.890625 15.378906-15.378906 15.378906h-34.945313v10.46875h34.945313c8.488281 0 15.378906 6.890626 15.378906 15.378907zm0 0" fill="#2fc0f0"/><path d="m214.808594 337.042969c0 8.492187-6.890625 15.382812-15.378906 15.382812h-34.945313v25.847657c0 8.417968-6.765625 15.257812-15.152344 15.371093v-113.210937h50.097657c8.488281 0 15.378906 6.890625 15.378906 15.382812 0 8.5-6.890625 15.378906-15.378906 15.378906h-34.945313v10.46875h34.945313c8.488281 0 15.378906 6.890626 15.378906 15.378907zm0 0" fill="#0d91bd"/><path d="m124.316406 295.855469c0 10.492187-8.503906 18.992187-18.992187 18.992187-10.492188 0-18.992188-8.5-18.992188-18.992187 0-10.488281 8.5-18.992188 18.992188-18.992188 10.488281 0 18.992187 8.503907 18.992187 18.992188zm0 0" fill="#2fc0f0"/><path d="m104.527344 131.027344h-11.042969c-22.273437 0-40.394531 18.121094-40.394531 40.394531 0 9.441406 3.265625 18.128906 8.714844 25.015625-5.449219 6.886719-8.714844 15.574219-8.714844 25.015625 0 22.273437 18.121094 40.394531 40.394531 40.394531h11.042969c22.273437 0 40.394531-18.121094 40.394531-40.394531 0-9.441406-3.265625-18.128906-8.710937-25.015625 5.445312-6.886719 8.710937-15.574219 8.710937-25.015625 0-22.273437-18.121094-40.394531-40.394531-40.394531zm-11.042969 30.761718h11.042969c5.3125 0 9.632812 4.320313 9.632812 9.632813s-4.320312 9.636719-9.632812 9.636719h-11.042969c-5.308594 0-9.632813-4.324219-9.632813-9.636719s4.324219-9.632813 9.632813-9.632813zm11.042969 69.296876h-11.042969c-5.308594 0-9.632813-4.324219-9.632813-9.636719s4.324219-9.632813 9.632813-9.632813h11.042969c5.3125 0 9.632812 4.320313 9.632812 9.632813s-4.320312 9.636719-9.632812 9.636719zm0 0" fill="#2fc0f0"/><path d="m245.570312 171.421875c0-22.273437-18.121093-40.394531-40.394531-40.394531h-11.042969c-22.273437 0-40.394531 18.121094-40.394531 40.394531 0 9.441406 3.265625 18.128906 8.714844 25.015625-5.449219 6.886719-8.714844 15.574219-8.714844 25.015625 0 22.273437 18.121094 40.394531 40.394531 40.394531h11.042969c22.273438 0 40.394531-18.121094 40.394531-40.394531 0-9.441406-3.265624-18.128906-8.714843-25.015625 5.449219-6.886719 8.714843-15.574219 8.714843-25.015625zm-51.433593-9.632813h11.039062c5.3125 0 9.632813 4.320313 9.632813 9.632813s-4.320313 9.636719-9.632813 9.636719h-11.039062c-5.3125 0-9.636719-4.324219-9.636719-9.636719s4.324219-9.632813 9.636719-9.632813zm11.039062 69.296876h-11.039062c-5.3125 0-9.636719-4.324219-9.636719-9.636719s4.324219-9.632813 9.636719-9.632813h11.039062c5.3125 0 9.632813 4.320313 9.632813 9.632813s-4.320313 9.636719-9.632813 9.636719zm0 0" fill="#0d91bd"/></svg>