<svg height="512pt" viewBox="-107 0 511 512" width="512pt" xmlns="http://www.w3.org/2000/svg"><path d="m298.160156 29.585938v452.828124c0 16.335938-13.238281 29.582032-29.582031 29.582032h-238.496094c-16.34375 0-29.582031-13.246094-29.582031-29.582032v-452.828124c0-16.332032 13.238281-29.58203175 29.582031-29.58203175h238.496094c16.34375 0 29.582031 13.24609375 29.582031 29.58203175zm0 0" fill="#2fc0f0"/><path d="m298.160156 29.582031v452.835938c0 16.335937-13.238281 29.582031-29.582031 29.582031h-119.246094v-512h119.246094c16.34375 0 29.582031 13.246094 29.582031 29.582031zm0 0" fill="#0d91bd"/><path d="m.5 86.984375h297.660156v338.03125h-297.660156zm0 0" fill="#beebfa"/><path d="m149.332031 86.980469h148.828125v338.039062h-148.828125zm0 0" fill="#7ed8f6"/><path d="m119.597656 58.105469h59.46875c8.492188 0 15.378906-6.886719 15.378906-15.378907 0-8.492187-6.886718-15.378906-15.378906-15.378906h-59.46875c-8.496094 0-15.382812 6.886719-15.382812 15.378906 0 8.492188 6.886718 15.378907 15.382812 15.378907zm0 0" fill="#beebfa"/><path d="m179.066406 453.894531h-59.46875c-8.496094 0-15.382812 6.886719-15.382812 15.378907 0 8.492187 6.886718 15.378906 15.382812 15.378906h59.46875c8.492188 0 15.378906-6.886719 15.378906-15.378906 0-8.492188-6.886718-15.378907-15.378906-15.378907zm0 0" fill="#beebfa"/><path d="m194.445312 42.726562c0 8.488282-6.890624 15.378907-15.378906 15.378907h-29.734375v-30.757813h29.734375c8.488282 0 15.378906 6.890625 15.378906 15.378906zm0 0" fill="#7ed8f6"/><path d="m194.445312 469.273438c0 8.488281-6.890624 15.378906-15.378906 15.378906h-29.734375v-30.757813h29.734375c8.488282 0 15.378906 6.890625 15.378906 15.378907zm0 0" fill="#7ed8f6"/><path d="m257.144531 240.765625h-13.652343c-8.414063 0-15.234376 6.820313-15.234376 15.234375 0 8.410156 6.820313 15.230469 15.234376 15.230469h13.652343c8.410157 0 15.230469-6.820313 15.230469-15.230469 0-8.414062-6.820312-15.234375-15.230469-15.234375zm0 0" fill="#ffd422"/><path d="m226.683594 200.1875 9.652344-9.652344c5.949218-5.949218 5.949218-15.59375 0-21.542968-5.949219-5.949219-15.59375-5.949219-21.539063 0l-9.65625 9.65625c-5.949219 5.949218-5.949219 15.589843 0 21.539062s15.59375 5.949219 21.542969 0zm0 0" fill="#ffd422"/><path d="m226.683594 311.808594c-5.949219-5.949219-15.59375-5.949219-21.542969 0-5.949219 5.949218-5.949219 15.59375 0 21.539062l9.65625 9.65625c5.945313 5.949219 15.589844 5.949219 21.539063 0 5.949218-5.949218 5.949218-15.589844 0-21.539062zm0 0" fill="#ffd422"/><g fill="#ffeb99"><path d="m149.332031 197.667969c-32.164062 0-58.332031 26.167969-58.332031 58.332031s26.167969 58.332031 58.332031 58.332031c32.164063 0 58.332031-26.167969 58.332031-58.332031s-26.167968-58.332031-58.332031-58.332031zm0 0"/><path d="m70.402344 256c0-8.414062-6.820313-15.234375-15.230469-15.234375h-13.65625c-8.410156 0-15.230469 6.820313-15.230469 15.234375 0 8.410156 6.820313 15.230469 15.230469 15.230469h13.65625c8.410156 0 15.230469-6.820313 15.230469-15.230469zm0 0"/><path d="m71.980469 311.808594-9.65625 9.65625c-5.949219 5.949218-5.949219 15.589844 0 21.539062 5.949219 5.949219 15.59375 5.949219 21.542969 0l9.652343-9.65625c5.949219-5.945312 5.949219-15.589844 0-21.539062-5.949219-5.949219-15.59375-5.949219-21.539062 0zm0 0"/><path d="m164.5625 148.1875v13.648438c0 8.417968-6.824219 15.230468-15.234375 15.230468-8.40625 0-15.230469-6.8125-15.230469-15.230468v-13.648438c0-8.417969 6.824219-15.230469 15.230469-15.230469 8.410156 0 15.234375 6.8125 15.234375 15.230469zm0 0"/><path d="m164.5625 350.152344v13.660156c0 8.40625-6.824219 15.230469-15.234375 15.230469-8.40625 0-15.230469-6.824219-15.230469-15.230469v-13.660156c0-8.40625 6.824219-15.230469 15.230469-15.230469 8.410156 0 15.234375 6.824219 15.234375 15.230469zm0 0"/></g><path d="m164.5625 148.1875v13.648438c0 8.417968-6.824219 15.230468-15.234375 15.230468v-44.109375c8.410156 0 15.234375 6.8125 15.234375 15.230469zm0 0" fill="#ffd422"/><path d="m164.5625 350.152344v13.660156c0 8.40625-6.824219 15.230469-15.234375 15.230469v-44.121094c8.410156 0 15.234375 6.824219 15.234375 15.230469zm0 0" fill="#ffd422"/><path d="m71.980469 200.1875c5.945312 5.949219 15.589843 5.949219 21.539062 0s5.949219-15.589844 0-21.539062l-9.652343-9.65625c-5.949219-5.949219-15.59375-5.949219-21.542969 0-5.949219 5.949218-5.949219 15.59375 0 21.542968zm0 0" fill="#ffeb99"/><path d="m207.667969 256.003906c0 32.160156-26.167969 58.324219-58.335938 58.324219v-116.660156c32.167969 0 58.335938 26.167969 58.335938 58.335937zm0 0" fill="#ffd422"/></svg>