<svg height="512pt" viewBox="-107 0 511 512" width="512pt" xmlns="http://www.w3.org/2000/svg"><path d="m298.160156 29.585938v452.828124c0 16.335938-13.238281 29.582032-29.582031 29.582032h-238.496094c-16.34375 0-29.582031-13.246094-29.582031-29.582032v-452.828124c0-16.332032 13.238281-29.58203175 29.582031-29.58203175h238.496094c16.34375 0 29.582031 13.24609375 29.582031 29.58203175zm0 0" fill="#2fc0f0"/><path d="m298.160156 29.582031v452.835938c0 16.335937-13.238281 29.582031-29.582031 29.582031h-119.246094v-512h119.246094c16.34375 0 29.582031 13.246094 29.582031 29.582031zm0 0" fill="#0d91bd"/><path d="m.5 86.984375h297.660156v338.03125h-297.660156zm0 0" fill="#beebfa"/><path d="m149.332031 86.980469h148.828125v338.039062h-148.828125zm0 0" fill="#7ed8f6"/><path d="m119.597656 58.105469h59.46875c8.492188 0 15.378906-6.886719 15.378906-15.378907 0-8.492187-6.886718-15.378906-15.378906-15.378906h-59.46875c-8.496094 0-15.382812 6.886719-15.382812 15.378906 0 8.492188 6.886718 15.378907 15.382812 15.378907zm0 0" fill="#beebfa"/><path d="m179.066406 453.894531h-59.46875c-8.496094 0-15.382812 6.886719-15.382812 15.378907 0 8.492187 6.886718 15.378906 15.382812 15.378906h59.46875c8.492188 0 15.378906-6.886719 15.378906-15.378906 0-8.492188-6.886718-15.378907-15.378906-15.378907zm0 0" fill="#beebfa"/><path d="m194.445312 42.726562c0 8.488282-6.890624 15.378907-15.378906 15.378907h-29.734375v-30.757813h29.734375c8.488282 0 15.378906 6.890625 15.378906 15.378906zm0 0" fill="#7ed8f6"/><path d="m194.445312 469.273438c0 8.488281-6.890624 15.378906-15.378906 15.378906h-29.734375v-30.757813h29.734375c8.488282 0 15.378906 6.890625 15.378906 15.378907zm0 0" fill="#7ed8f6"/><path d="m274.257812 220.851562c0 33.765626-27.371093 61.136719-61.136718 61.136719-33.761719 0-61.136719-27.371093-61.136719-61.136719 0-33.765624 27.375-61.136718 61.136719-61.136718 33.765625 0 61.136718 27.371094 61.136718 61.136718zm0 0" fill="#ffeb99"/><path d="m274.257812 220.851562c0 33.765626-27.371093 61.136719-61.136718 61.136719v-122.273437c33.765625 0 61.136718 27.371094 61.136718 61.136718zm0 0" fill="#ffde55"/><path d="m276.914062 306.199219c0 24.859375-19.679687 45.121093-44.316406 46.046875-.59375.039062-1.175781.039062-1.757812.039062h-175.003906c-18.820313 0-34.085938-15.25-34.085938-34.085937 0-18.820313 15.25-34.085938 34.085938-34.085938h19.203124v-.117187c0-37.722656 30.570313-68.292969 68.292969-68.292969h.710938c1.785156.015625 3.542969.105469 5.289062.265625 28.652344 2.484375 52.246094 22.679688 59.777344 49.574219 6.464844-3.460938 13.867187-5.429688 21.71875-5.429688 25.453125-.003906 46.085937 20.628907 46.085937 46.085938zm0 0" fill="#eef6ff"/><path d="m276.914062 306.199219c0 24.859375-19.679687 45.121093-44.316406 46.046875-.59375.039062-1.175781.039062-1.757812.039062h-81.507813v-136.316406c28.652344 2.484375 52.246094 22.679688 59.777344 49.574219 6.464844-3.460938 13.867187-5.433594 21.71875-5.433594 25.453125 0 46.085937 20.632813 46.085937 46.089844zm0 0" fill="#dae2f2"/></svg>