<svg height="512pt" viewBox="-71 0 512 512" width="512pt" xmlns="http://www.w3.org/2000/svg"><path d="m191.070312 151.570312c0 43.109376-34.945312 78.054688-78.046874 78.054688-43.109376 0-78.054688-34.945312-78.054688-78.054688 0-35.5625 53.148438-119.785156 71.734375-148.148437 1.496094-2.28125 3.902344-3.421875 6.320313-3.421875 2.417968 0 4.828124 1.140625 6.324218 3.421875 18.574219 28.363281 71.722656 112.582031 71.722656 148.148437zm0 0" fill="#7ed8f6"/><path d="m369.109375 309.226562c0 50.625-41.027344 91.652344-91.640625 91.652344-50.625 0-91.652344-41.027344-91.652344-91.652344 0-42.492187 64.609375-144.136718 85.332032-175.652343 1.496093-2.269531 3.902343-3.402344 6.320312-3.402344 2.40625 0 4.824219 1.132813 6.308594 3.402344 20.722656 31.515625 85.332031 133.160156 85.332031 175.652343zm0 0" fill="#beebfa"/><path d="m172.148438 425.917969c0 47.542969-38.535157 86.082031-86.066407 86.082031-47.542969 0-86.082031-38.539062-86.082031-86.082031 0-39.34375 58.964844-132.664063 79.289062-163.671875 1.597657-2.4375 4.195313-3.664063 6.792969-3.664063 2.585938 0 5.171875 1.222657 6.777344 3.664063 20.324219 31.007812 79.289063 124.328125 79.289063 163.671875zm0 0" fill="#5ecef4"/><path d="m369.109375 309.226562c0 50.625-41.027344 91.652344-91.640625 91.652344v-270.707031c2.40625 0 4.824219 1.132813 6.308594 3.402344 20.722656 31.515625 85.332031 133.160156 85.332031 175.652343zm0 0" fill="#7ed8f6"/><path d="m172.148438 425.917969c0 47.542969-38.535157 86.082031-86.066407 86.082031v-253.417969c2.585938 0 5.171875 1.226563 6.777344 3.664063 20.324219 31.007812 79.289063 124.328125 79.289063 163.671875zm0 0" fill="#2fc0f0"/><path d="m191.070312 151.570312c0 43.109376-34.945312 78.054688-78.046874 78.054688v-229.625c2.417968 0 4.828124 1.140625 6.324218 3.421875 18.574219 28.363281 71.722656 112.582031 71.722656 148.148437zm0 0" fill="#5ecef4"/></svg>