<svg height="512pt" viewBox="-50 0 511 512" width="512pt" xmlns="http://www.w3.org/2000/svg"><g fill="#beebfa"><path d="m223.425781 441.664062c0 9.460938-7.671875 17.132813-17.136719 17.132813-9.460937 0-17.132812-7.671875-17.132812-17.132813 0-9.464843 7.671875-17.136718 17.132812-17.136718 9.464844 0 17.136719 7.671875 17.136719 17.136718zm0 0"/><path d="m97.695312 322.324219c0 9.460937-7.675781 17.136719-17.136718 17.136719-9.46875 0-17.132813-7.675782-17.132813-17.136719 0-9.46875 7.664063-17.132813 17.132813-17.132813 9.460937 0 17.136718 7.664063 17.136718 17.132813zm0 0"/><path d="m349.15625 322.324219c0 9.460937-7.664062 17.136719-17.136719 17.136719-9.457031 0-17.132812-7.675782-17.132812-17.136719 0-9.46875 7.675781-17.132813 17.132812-17.132813 9.472657 0 17.136719 7.664063 17.136719 17.132813zm0 0"/></g><path d="m130.71875 482.015625c-2.957031 5.113281-8.3125 7.972656-13.828125 7.972656-2.699219 0-5.441406-.691406-7.953125-2.136719l-12.433594-7.1875v15.390626c0 8.800781-7.144531 15.945312-15.945312 15.945312-8.808594 0-15.941406-7.144531-15.941406-15.945312v-15.390626l-12.4375 7.1875c-2.519532 1.445313-5.25 2.136719-7.960938 2.136719-5.503906 0-10.871094-2.859375-13.816406-7.972656-4.410156-7.632813-1.796875-17.378906 5.835937-21.777344l12.433594-7.1875-12.433594-7.175781c-7.632812-4.410156-10.246093-14.15625-5.835937-21.789062 4.398437-7.621094 14.144531-10.234376 21.777344-5.832032l12.4375 7.183594v-15.390625c0-8.800781 7.132812-15.945313 15.941406-15.945313 8.800781 0 15.945312 7.144532 15.945312 15.945313v15.390625l12.433594-7.183594c7.621094-4.402344 17.371094-1.789062 21.78125 5.832032 4.398438 7.632812 1.785156 17.378906-5.835938 21.789062l-12.4375 7.175781 12.4375 7.1875c7.621094 4.398438 10.234376 14.144531 5.835938 21.777344zm0 0" fill="#7ed8f6"/><path d="m382.179688 482.015625c-2.945313 5.113281-8.3125 7.972656-13.816407 7.972656-2.710937 0-5.445312-.691406-7.960937-2.136719l-12.4375-7.1875v15.390626c0 8.800781-7.132813 15.945312-15.945313 15.945312-8.800781 0-15.941406-7.144531-15.941406-15.945312v-15.390626l-12.4375 7.1875c-2.507813 1.445313-5.25 2.136719-7.949219 2.136719-5.515625 0-10.875-2.859375-13.828125-7.972656-4.402343-7.632813-1.785156-17.378906 5.835938-21.777344l12.433593-7.1875-12.433593-7.175781c-7.621094-4.410156-10.238281-14.15625-5.835938-21.789062 4.410157-7.621094 14.15625-10.234376 21.777344-5.832032l12.4375 7.183594v-15.390625c0-8.800781 7.140625-15.945313 15.941406-15.945313 8.8125 0 15.945313 7.144532 15.945313 15.945313v15.390625l12.4375-7.183594c7.628906-4.402344 17.375-1.789062 21.777344 5.832032 4.410156 7.632812 1.796874 17.378906-5.835938 21.789062l-12.433594 7.175781 12.433594 7.1875c7.632812 4.398438 10.246094 14.144531 5.835938 21.777344zm0 0" fill="#7ed8f6"/><path d="m256.449219 293.363281c-4.402344-7.628906-14.152344-10.238281-21.777344-5.835937l-12.4375 7.179687v-15.390625c0-8.804687-7.136719-15.941406-15.941406-15.941406-8.804688 0-15.945313 7.136719-15.945313 15.941406v15.390625l-12.433594-7.179687c-7.628906-4.40625-17.378906-1.792969-21.78125 5.835937-4.402343 7.625-1.789062 17.375 5.835938 21.777344l12.4375 7.179687-12.4375 7.179688c-7.625 4.402344-10.238281 14.15625-5.835938 21.78125 2.953126 5.113281 8.3125 7.972656 13.824219 7.972656 2.703125 0 5.445313-.6875 7.957031-2.140625l12.433594-7.179687v15.390625c0 8.804687 7.140625 15.945312 15.945313 15.945312 8.804687 0 15.941406-7.140625 15.941406-15.945312v-15.386719l12.4375 7.175781c2.507813 1.453125 5.25 2.140625 7.957031 2.140625 5.507813 0 10.867188-2.859375 13.820313-7.972656 4.402343-7.625 1.789062-17.378906-5.835938-21.78125l-12.4375-7.179688 12.4375-7.179687c7.625-4.402344 10.238281-14.152344 5.835938-21.777344zm0 0" fill="#7ed8f6"/><path d="m412.082031 159.394531c0 38.789063-31.4375 70.226563-70.222656 70.226563h-271.125c-38.785156 0-70.234375-31.4375-70.234375-70.226563 0-38.785156 31.449219-70.234375 70.234375-70.234375 11.164063 0 21.703125 2.609375 31.078125 7.238282 8.789062-54.46875 55.859375-96.109376 112.734375-96.39453175h.597656c55.113281 0 101.148438 38.84765575 112.25 90.64843775 4.667969-.96875 9.511719-1.492188 14.464844-1.492188 38.785156 0 70.222656 31.449219 70.222656 70.234375zm0 0" fill="#dae2f2"/><path d="m223.425781 441.667969c0 9.460937-7.675781 17.132812-17.136719 17.132812v-34.265625c9.460938 0 17.136719 7.664063 17.136719 17.132813zm0 0" fill="#7ed8f6"/><path d="m256.449219 351.277344c-2.957031 5.113281-8.3125 7.972656-13.816407 7.972656-2.710937 0-5.453124-.679688-7.960937-2.136719l-12.4375-7.175781v15.394531c0 8.800781-7.144531 15.941407-15.945313 15.941407v-117.898438c8.800782 0 15.945313 7.132812 15.945313 15.945312v15.390626l12.4375-7.183594c7.621094-4.402344 17.375-1.789063 21.777344 5.832031 4.398437 7.632813 1.785156 17.378906-5.835938 21.78125l-12.4375 7.183594 12.4375 7.175781c7.621094 4.398438 10.234375 14.15625 5.835938 21.777344zm0 0" fill="#5ecef4"/><path d="m412.078125 159.394531c0 38.785157-31.429687 70.222657-70.226563 70.222657h-135.5625v-229.277344c2.734376-.210938 5.484376-.3281252 8.261719-.339844h.59375c55.113281 0 101.144531 38.847656 112.253907 90.65625 4.664062-.980469 9.5-1.5 14.453124-1.5 38.796876 0 70.226563 31.453125 70.226563 70.238281zm0 0" fill="#b9ceed"/><path d="m382.179688 482.015625c-2.945313 5.113281-8.3125 7.972656-13.816407 7.972656-2.710937 0-5.445312-.691406-7.960937-2.136719l-12.4375-7.1875v15.390626c0 8.800781-7.132813 15.945312-15.945313 15.945312v-117.898438c8.8125 0 15.945313 7.144532 15.945313 15.945313v15.390625l12.4375-7.183594c7.628906-4.402344 17.375-1.789062 21.777344 5.832032 4.410156 7.632812 1.796874 17.378906-5.835938 21.789062l-12.433594 7.175781 12.433594 7.1875c7.632812 4.398438 10.246094 14.144531 5.835938 21.777344zm0 0" fill="#5ecef4"/><path d="m130.71875 482.015625c-2.957031 5.113281-8.3125 7.972656-13.828125 7.972656-2.699219 0-5.441406-.691406-7.953125-2.136719l-12.433594-7.1875v15.390626c0 8.800781-7.144531 15.945312-15.945312 15.945312v-117.898438c8.800781 0 15.945312 7.144532 15.945312 15.945313v15.390625l12.433594-7.183594c7.621094-4.402344 17.371094-1.789062 21.78125 5.832032 4.398438 7.632812 1.785156 17.378906-5.835938 21.789062l-12.4375 7.175781 12.4375 7.1875c7.621094 4.398438 10.234376 14.144531 5.835938 21.777344zm0 0" fill="#5ecef4"/><path d="m97.695312 322.324219c0 9.460937-7.675781 17.136719-17.136718 17.136719v-34.269532c9.460937 0 17.136718 7.664063 17.136718 17.132813zm0 0" fill="#7ed8f6"/><path d="m349.15625 322.324219c0 9.460937-7.664062 17.136719-17.136719 17.136719v-34.269532c9.472657 0 17.136719 7.664063 17.136719 17.132813zm0 0" fill="#7ed8f6"/></svg>