<svg height="512pt" viewBox="0 -5 512 512" width="512pt" xmlns="http://www.w3.org/2000/svg"><path d="m229.113281 208.21875c0 21.378906-17.398437 38.769531-38.78125 38.769531h-174.21875c-8.898437 0-16.113281-7.203125-16.113281-16.101562 0-8.894531 7.214844-16.101563 16.113281-16.101563h174.21875c3.617188 0 6.566407-2.949218 6.566407-6.566406s-2.949219-6.566406-6.566407-6.566406h-11.554687c-8.898438 0-16.101563-7.207032-16.101563-16.101563 0-8.898437 7.203125-16.105469 16.101563-16.105469h11.554687c21.382813 0 38.78125 17.390626 38.78125 38.773438zm0 0" fill="#5ecef4"/><path d="m512 38.78125c0 21.382812-18.410156 38.773438-41.039062 38.773438h-332.347657c-8.886719 0-16.101562-7.207032-16.101562-16.105469 0-8.894531 7.214843-16.109375 16.101562-16.109375h332.347657c4.78125 0 8.824218-3 8.824218-6.558594 0-3.554688-4.042968-6.566406-8.824218-6.566406h-12.722657c-8.894531 0-16.101562-7.207032-16.101562-16.101563 0-8.898437 7.207031-16.113281 16.101562-16.113281h12.722657c22.628906 0 41.039062 17.402344 41.039062 38.78125zm0 0" fill="#5ecef4"/><path d="m512 38.78125c0 21.382812-18.410156 38.773438-41.039062 38.773438h-148.902344v-32.214844h148.902344c4.78125 0 8.824218-3 8.824218-6.558594 0-3.554688-4.042968-6.566406-8.824218-6.566406h-12.722657c-8.894531 0-16.101562-7.207032-16.101562-16.101563 0-8.898437 7.207031-16.113281 16.101562-16.113281h12.722657c22.628906 0 41.039062 17.402344 41.039062 38.78125zm0 0" fill="#2fc0f0"/><path d="m493.113281 380.488281c0 21.382813-17.402343 38.785157-38.78125 38.785157h-163.652343c-8.898438 0-16.101563-7.21875-16.101563-16.113282 0-8.886718 7.203125-16.105468 16.101563-16.105468h163.652343c3.617188 0 6.566407-2.945313 6.566407-6.566407 0-3.617187-2.949219-6.554687-6.566407-6.554687h-11.554687c-8.898438 0-16.105469-7.214844-16.105469-16.113282 0-8.886718 7.207031-16.101562 16.105469-16.101562h11.554687c21.378907 0 38.78125 17.390625 38.78125 38.769531zm0 0" fill="#5ecef4"/><path d="m444.21875 122.914062c0 8.894532-7.207031 16.101563-16.101562 16.101563h-174.476563c-8.898437 0-16.113281-7.207031-16.113281-16.101563 0-8.898437 7.214844-16.105468 16.113281-16.105468h174.476563c8.894531 0 16.101562 7.207031 16.101562 16.105468zm0 0" fill="#9ee2f8"/><path d="m444.21875 122.914062c0 8.894532-7.207031 16.101563-16.101562 16.101563h-87.246094v-32.207031h87.246094c8.894531 0 16.101562 7.207031 16.101562 16.105468zm0 0" fill="#7ed8f6"/><path d="m174.507812 122.914062c0 8.894532-7.214843 16.101563-16.113281 16.101563h-124.507812c-8.898438 0-16.105469-7.207031-16.105469-16.101563 0-8.898437 7.207031-16.105468 16.105469-16.105468h124.507812c8.898438 0 16.113281 7.207031 16.113281 16.105468zm0 0" fill="#9ee2f8"/><path d="m399.953125 470.0625c0 8.898438-7.214844 16.101562-16.113281 16.101562h-93.160156c-8.898438 0-16.101563-7.203124-16.101563-16.101562 0-8.894531 7.203125-16.101562 16.101563-16.101562h93.160156c8.898437 0 16.113281 7.207031 16.113281 16.101562zm0 0" fill="#9ee2f8"/><path d="m481.21875 208.21875c0 17.71875-14.371094 32.089844-32.09375 32.089844-17.730469 0-32.089844-14.371094-32.089844-32.089844 0-17.722656 14.359375-32.09375 32.089844-32.09375 17.722656 0 32.09375 14.371094 32.09375 32.09375zm0 0" fill="#5ecef4"/><path d="m362.921875 263.125c0 17.730469-14.367187 32.089844-32.089844 32.089844-17.730469 0-32.101562-14.359375-32.101562-32.089844 0-17.722656 14.371093-32.09375 32.101562-32.09375 17.722657 0 32.089844 14.371094 32.089844 32.09375zm0 0" fill="#9ee2f8"/><path d="m493.113281 380.488281c0 21.382813-17.402343 38.785157-38.78125 38.785157h-70.492187v-32.21875h70.492187c3.617188 0 6.566407-2.945313 6.566407-6.566407 0-3.617187-2.949219-6.554687-6.566407-6.554687h-11.554687c-8.898438 0-16.105469-7.214844-16.105469-16.113282 0-8.886718 7.207031-16.101562 16.105469-16.101562h11.554687c21.378907 0 38.78125 17.390625 38.78125 38.769531zm0 0" fill="#2fc0f0"/><path d="m229.113281 208.21875c0 21.378906-17.398437 38.769531-38.78125 38.769531h-75.78125v-32.203125h75.78125c3.617188 0 6.566407-2.949218 6.566407-6.566406s-2.949219-6.566406-6.566407-6.566406h-11.554687c-8.898438 0-16.101563-7.207032-16.101563-16.101563 0-8.898437 7.203125-16.105469 16.101563-16.105469h11.554687c21.382813 0 38.78125 17.390626 38.78125 38.773438zm0 0" fill="#2fc0f0"/><path d="m174.507812 122.914062c0 8.894532-7.214843 16.101563-16.113281 16.101563h-62.253906v-32.207031h62.253906c8.898438 0 16.113281 7.207031 16.113281 16.105468zm0 0" fill="#7ed8f6"/><path d="m399.953125 470.0625c0 8.898438-7.214844 16.101562-16.113281 16.101562h-46.574219v-32.203124h46.574219c8.898437 0 16.113281 7.207031 16.113281 16.101562zm0 0" fill="#7ed8f6"/><path d="m173.929688 459.8125c-38.429688 38.429688-96.714844 42.453125-130.183594 8.988281-33.457032-33.457031-29.433594-91.746093 8.996094-130.175781 31.230468-31.226562 121.183593-41.109375 153.757812-43.714844 3.179688-.246094 6.085938.941406 8.140625 2.996094 2.0625 2.050781 3.261719 4.964844 3.003906 8.152344-2.601562 32.574218-12.488281 122.527344-43.714843 153.753906zm0 0" fill="#a6ffb5"/><path d="m173.929688 459.8125c-38.429688 38.429688-96.714844 42.453125-130.183594 8.988281l170.894531-170.894531c2.0625 2.050781 3.261719 4.964844 3.003906 8.152344-2.601562 32.574218-12.488281 122.527344-43.714843 153.753906zm0 0" fill="#00dd80"/><path d="m148.933594 386.402344-111.6875 111.6875c-6.292969 6.289062-16.488282 6.285156-22.78125-.007813-6.28125-6.28125-6.289063-16.480469 0-22.769531l111.691406-111.691406c6.289062-6.289063 16.496094-6.289063 22.777344-.007813 6.292968 6.292969 6.292968 16.496094 0 22.789063zm0 0" fill="#ff7c48"/><path d="m148.933594 386.402344-111.6875 111.6875c-6.292969 6.289062-16.488282 6.285156-22.78125-.007813l134.46875-134.46875c6.292968 6.292969 6.292968 16.496094 0 22.789063zm0 0" fill="#ff6426"/><path d="m362.921875 263.125c0 17.730469-14.367187 32.089844-32.089844 32.089844v-64.183594c17.722657 0 32.089844 14.371094 32.089844 32.09375zm0 0" fill="#7ed8f6"/><path d="m481.21875 208.21875c0 17.71875-14.371094 32.089844-32.09375 32.089844v-64.183594c17.722656 0 32.09375 14.371094 32.09375 32.09375zm0 0" fill="#2fc0f0"/></svg>