<svg height="511pt" viewBox="0 0 511 511.99949" width="511pt" xmlns="http://www.w3.org/2000/svg"><g fill="#7ed8f6"><path d="m119.847656 387.488281c-8.765625 0-15.875 7.105469-15.875 15.875v92.761719c0 8.765625 7.109375 15.875 15.875 15.875 8.769532 0 15.875-7.109375 15.875-15.875v-92.761719c0-8.769531-7.105468-15.875-15.875-15.875zm0 0"/><path d="m119.847656 297.683594c-8.765625 0-15.875 7.109375-15.875 15.875v33.976562c0 8.765625 7.109375 15.875 15.875 15.875 8.769532 0 15.875-7.109375 15.875-15.875v-33.976562c0-8.765625-7.105468-15.875-15.875-15.875zm0 0"/><path d="m210.867188 448.324219c-8.769532 0-15.875 7.105469-15.875 15.875v31.925781c0 8.765625 7.105468 15.875 15.875 15.875 8.765624 0 15.875-7.109375 15.875-15.875v-31.925781c0-8.769531-7.109376-15.875-15.875-15.875zm0 0"/><path d="m210.867188 297.683594c-8.769532 0-15.875 7.109375-15.875 15.875v95.351562c0 8.769532 7.105468 15.875 15.875 15.875 8.765624 0 15.875-7.105468 15.875-15.875v-95.351562c0-8.765625-7.109376-15.875-15.875-15.875zm0 0"/></g><path d="m301.882812 377.523438c-8.769531 0-15.875 7.105468-15.875 15.875v102.726562c0 8.765625 7.105469 15.875 15.875 15.875 8.765626 0 15.875-7.109375 15.875-15.875v-102.726562c0-8.769532-7.109374-15.875-15.875-15.875zm0 0" fill="#5ecef4"/><path d="m301.882812 297.683594c-8.769531 0-15.875 7.109375-15.875 15.875v23.957031c0 8.769531 7.105469 15.875 15.875 15.875 8.765626 0 15.875-7.105469 15.875-15.875v-23.957031c0-8.765625-7.109374-15.875-15.875-15.875zm0 0" fill="#5ecef4"/><path d="m392.898438 429.484375c-8.765626 0-15.875 7.109375-15.875 15.875v50.765625c0 8.765625 7.109374 15.875 15.875 15.875 8.769531 0 15.875-7.109375 15.875-15.875v-50.765625c0-8.765625-7.105469-15.875-15.875-15.875zm0 0" fill="#5ecef4"/><path d="m392.898438 297.683594c-8.765626 0-15.875 7.109375-15.875 15.875v75.808594c0 8.765624 7.109374 15.875 15.875 15.875 8.769531 0 15.875-7.109376 15.875-15.875v-75.808594c0-8.765625-7.105469-15.875-15.875-15.875zm0 0" fill="#5ecef4"/><path d="m512.25 181.503906c0 51.335938-41.730469 92.433594-92.425781 92.433594h-350.957031c-37.761719 0-68.367188-30.609375-68.367188-68.359375 0-37.757813 30.609375-68.367187 68.367188-68.367187h38.515624c0-.082032-.011718-.160157-.011718-.242188 0-79.671875 68.015625-143.398438 149.003906-136.449219 57.472656 5 104.773438 45.492188 119.882812 99.433594 12.980469-6.945313 27.800782-10.894531 43.546876-10.894531 51.058593 0 92.445312 41.386718 92.445312 92.445312zm0 0" fill="#eef6ff"/><path d="m512.25 181.503906c0 51.335938-41.730469 92.433594-92.425781 92.433594h-163.449219v-273.421875c57.472656 5.003906 104.773438 45.496094 119.882812 99.4375 12.980469-6.949219 27.800782-10.894531 43.546876-10.894531 51.058593 0 92.445312 41.386718 92.445312 92.445312zm0 0" fill="#dae2f2"/></svg>