<svg height="512pt" viewBox="-18 0 512 512" width="512pt" xmlns="http://www.w3.org/2000/svg"><path d="m446.160156 437.636719c0 8.523437-6.894531 15.40625-15.40625 15.40625h-51.574218v43.5625c0 8.5-6.90625 15.394531-15.40625 15.394531-8.515626 0-15.40625-6.894531-15.40625-15.394531v-109.761719c0-8.523438 6.890624-15.40625 15.40625-15.40625h66.980468c8.515625 0 15.40625 6.882812 15.40625 15.40625 0 8.503906-6.894531 15.394531-15.40625 15.394531h-51.574218v20.003907h51.574218c8.511719 0 15.40625 6.890624 15.40625 15.394531zm0 0" fill="#7ed8f6"/><path d="m270.464844 322.019531h-.011719c-23.96875 0-43.476563 19.503907-43.476563 43.488281 0 23.980469 19.507813 43.484376 43.476563 43.484376h.011719c23.984375-.007813 43.488281-19.503907 43.488281-43.484376 0-23.984374-19.503906-43.476562-43.488281-43.488281zm0 56.160157h-.011719c-6.976563 0-12.660156-5.683594-12.660156-12.671876 0-6.988281 5.683593-12.6875 12.660156-12.6875h.011719c7 .011719 12.675781 5.699219 12.675781 12.6875 0 6.988282-5.675781 12.664063-12.675781 12.671876zm0 0" fill="#7ed8f6"/><path d="m70.550781 371.4375h-12.113281c-36.308594 0-56.074219 42.554688-32.867188 70.285156-23.207031 27.722656-3.441406 70.277344 32.867188 70.277344h12.113281c36.296875 0 56.078125-42.546875 32.867188-70.277344 23.210937-27.730468 3.441406-70.285156-32.867188-70.285156zm0 109.761719h-12.113281c-6.636719 0-12.027344-5.402344-12.027344-12.039063 0-6.640625 5.390625-12.039062 12.027344-12.039062h12.113281c6.628907 0 12.03125 5.398437 12.03125 12.039062 0 6.636719-5.402343 12.039063-12.03125 12.039063zm0-54.882813h-12.113281c-6.636719 0-12.027344-5.398437-12.027344-12.039062 0-6.636719 5.390625-12.035156 12.027344-12.035156h12.113281c6.628907 0 12.03125 5.398437 12.03125 12.035156 0 6.640625-5.402343 12.039062-12.03125 12.039062zm0 0" fill="#7ed8f6"/><path d="m180.96875 371.4375h-12.121094c-36.382812 0-56.015625 42.628906-32.867187 70.285156-23.15625 27.65625-3.507813 70.277344 32.867187 70.277344h12.121094c36.363281 0 56.027344-42.621094 32.867188-70.277344 23.160156-27.667968 3.507812-70.285156-32.867188-70.285156zm0 109.761719h-12.121094c-6.628906 0-12.03125-5.402344-12.03125-12.039063 0-6.640625 5.402344-12.039062 12.03125-12.039062h12.121094c6.628906 0 12.039062 5.398437 12.039062 12.039062 0 6.636719-5.410156 12.039063-12.039062 12.039063zm0-54.882813h-12.121094c-6.628906 0-12.03125-5.398437-12.03125-12.039062 0-6.636719 5.402344-12.035156 12.03125-12.035156h12.121094c6.628906 0 12.039062 5.398437 12.039062 12.035156 0 6.640625-5.410156 12.039062-12.039062 12.039062zm0 0" fill="#7ed8f6"/><path d="m475.132812 104.8125c0 57.878906-46.929687 104.796875-104.8125 104.796875-57.878906 0-104.800781-46.917969-104.800781-104.796875 0-57.882812 46.917969-104.8125 104.800781-104.8125 57.882813 0 104.8125 46.929688 104.8125 104.8125zm0 0" fill="#ffeb99"/><path d="m475.132812 104.8125c0 57.878906-46.929687 104.796875-104.8125 104.796875v-209.609375c57.882813 0 104.8125 46.929688 104.8125 104.8125zm0 0" fill="#ffde55"/><path d="m455.21875 214.339844c0 45.664062-37.117188 82.226562-82.207031 82.226562h-312.207031c-33.558594 0-60.804688-27.226562-60.804688-60.808594 0-33.597656 27.222656-60.820312 60.804688-60.820312h34.273437c0-.066406-.011719-.148438-.011719-.214844 0-65.167968 51.148438-118.378906 115.484375-121.683594 57.585938-3.015624 108.527344 34.597657 123.695313 88.761719 54.445312-29.136719 120.972656 10.292969 120.972656 72.539063zm0 0" fill="#eef6ff"/><path d="m455.21875 214.339844c0 45.664062-37.117188 82.226562-82.207031 82.226562h-162.460938v-243.527344c57.585938-3.015624 108.527344 34.597657 123.695313 88.761719 54.445312-29.136719 120.972656 10.292969 120.972656 72.539063zm0 0" fill="#dae2f2"/><g fill="#2fc0f0"><path d="m103.417969 441.722656c23.210937 27.730469 3.429687 70.277344-32.867188 70.277344h-6.054687v-30.800781h6.054687c6.628907 0 12.03125-5.402344 12.03125-12.039063 0-6.640625-5.402343-12.039062-12.03125-12.039062h-6.054687v-30.804688h6.054687c6.628907 0 12.03125-5.398437 12.03125-12.039062 0-6.636719-5.402343-12.035156-12.03125-12.035156h-6.054687v-30.804688h6.054687c36.308594 0 56.078125 42.554688 32.867188 70.285156zm0 0"/><path d="m213.835938 441.722656c23.160156 27.65625 3.496093 70.277344-32.867188 70.277344h-6.054688v-30.800781h6.054688c6.628906 0 12.039062-5.402344 12.039062-12.039063 0-6.640625-5.410156-12.039062-12.039062-12.039062h-6.054688v-30.804688h6.054688c6.628906 0 12.039062-5.398437 12.039062-12.039062 0-6.636719-5.410156-12.035156-12.039062-12.035156h-6.054688v-30.804688h6.054688c36.375 0 56.027344 42.617188 32.867188 70.285156zm0 0"/><path d="m313.953125 365.507812c0 23.980469-19.503906 43.476563-43.488281 43.488282v-30.816406c7-.007813 12.675781-5.683594 12.675781-12.671876 0-6.988281-5.675781-12.675781-12.675781-12.6875v-30.800781c23.984375.011719 43.488281 19.503907 43.488281 43.488281zm0 0"/><path d="m446.160156 437.636719c0 8.523437-6.894531 15.40625-15.40625 15.40625h-33.492187v-30.800781h33.492187c8.511719 0 15.40625 6.890624 15.40625 15.394531zm0 0"/><path d="m430.753906 402.238281h-33.492187v-30.800781h33.492187c8.515625 0 15.40625 6.882812 15.40625 15.40625 0 8.503906-6.894531 15.394531-15.40625 15.394531zm0 0"/></g></svg>